<svg width="117" height="44" viewBox="0 0 117 44" fill="none" xmlns="http://www.w3.org/2000/svg">
<path d="M1.25343 41.0564C2.74545 42.9747 5.49219 43.3593 7.45371 41.9246L12.9718 37.8884C13.7582 37.3132 14.223 36.3973 14.223 35.423V32.7057C14.223 31.2632 16.0161 30.4571 17.4586 30.4571V30.4571L18.1388 28.5173C18.4835 27.5343 18.476 26.462 18.1175 25.484L17.4038 23.5365C15.6512 23.5365 14.223 22.0985 14.223 20.256V14.8371C14.223 12.5691 12.0899 10.9062 9.8905 11.4596V11.4596C8.34261 11.8491 7.25759 13.2409 7.25759 14.8371V31.2074C7.25759 32.5273 6.67732 33.7805 5.67079 34.6343L0 39.4448L1.25343 41.0564Z" fill="#FAFDFF"/>
<path d="M17.4488 30.4571C18.5684 30.4571 19.6319 30.2648 20.619 29.9208C22.8523 29.1424 25.52 29.152 27.7556 29.924C28 30.0084 28.2492 30.0836 28.5027 30.149C29.9257 30.5163 31.2558 29.5287 31.7421 28.1418V28.1418C32.002 27.4006 32.002 26.593 31.7421 25.8518V25.8518C31.2558 24.4649 29.7732 23.6734 28.6927 22.6771C28.0476 22.0822 27.6498 21.225 27.6498 20.256V14.7874C27.6498 12.5406 25.5419 10.8896 23.3606 11.4279V11.4279C21.8152 11.8092 20.7293 13.1956 20.7293 14.7874V20.256C20.7293 22.0985 19.2463 23.5365 17.4488 23.5365H17.4038L18.1175 25.484C18.476 26.462 18.4835 27.5343 18.1388 28.5173L17.4586 30.4571H17.4488ZM11.7963 3.15683C11.7963 4.63356 12.9935 5.83068 14.4702 5.83068H25.2905C26.7672 5.83068 27.9644 4.63356 27.9644 3.15683V3.15683C27.9644 1.68011 26.7672 0.48298 25.2905 0.48298H14.4702C12.9935 0.48298 11.7963 1.68011 11.7963 3.15683V3.15683Z" fill="#FAFDFF"/>
<path d="M30.1395 27.7829C30.603 29.3678 32.0564 30.4571 33.7077 30.4571V30.4571C34.8238 30.4571 35.892 30.266 36.8824 29.924C39.118 29.152 41.7857 29.1424 44.019 29.9208C45.0061 30.2648 46.0696 30.4571 47.1892 30.4571L48.3088 27.0867L48.7758 23.5365C46.9782 23.5365 43.9087 22.0985 43.9087 20.256V14.7874C43.9087 12.5406 41.8008 10.8896 39.6195 11.4279V11.4279C38.0741 11.8092 36.9882 13.1956 36.9882 14.7874V20.256C36.9882 22.0985 35.5052 23.5365 33.7077 23.5365H33.0675C31.7746 23.5365 30.6152 24.3327 30.1509 25.5393V25.5393C29.9049 26.1786 29.8758 26.8811 30.0681 27.5386L30.1395 27.7829ZM31.1462 37.6248C31.1462 39.1015 32.3433 40.2987 33.8201 40.2987H35.6456C36.6601 40.2987 37.4825 41.1211 37.4825 42.1356V42.1356C37.4825 43.3818 38.697 44.2663 39.883 43.884L41.0354 43.5126C42.1587 43.1505 42.9201 42.1051 42.9201 40.9249V39.4448C42.9201 36.9629 40.9081 34.951 38.4262 34.951H33.8201C32.3433 34.951 31.1462 36.1481 31.1462 37.6248V37.6248Z" fill="#FAFDFF"/>
<path d="M47.1892 30.4571H48.7758H50.3486C55.9659 30.4571 60.5496 25.8733 60.5496 20.256V14.7874C60.5496 12.5406 58.4417 10.8896 56.2604 11.4279V11.4279C54.715 11.8092 53.6291 13.1956 53.6291 14.7874V20.256C53.6291 22.0985 52.1461 23.5365 50.3486 23.5365H48.7758L48.3088 27.0867L47.1892 30.4571ZM46.8434 37.6023C46.8434 39.0915 48.0506 40.2987 49.5397 40.2987H56.0108C57.5 40.2987 58.7071 39.0915 58.7071 37.6023V37.6023C58.7071 36.1132 57.5 34.906 56.0108 34.906H49.5397C48.0506 34.906 46.8434 36.1132 46.8434 37.6023V37.6023Z" fill="#FAFDFF"/>
<path d="M62.2023 38.1661C63.577 40.2362 66.3709 40.7977 68.4386 39.4192L70.762 37.8703C71.6026 37.3098 72.1076 36.3663 72.1076 35.356V31.7627C72.1076 30.7032 73.9366 30.0901 74.9605 30.3624V30.3624C75.4822 30.5011 75.4627 30.1161 75.6414 29.6066L76.5565 26.9968L75.2718 23.1545C74.7101 22.5928 72.1076 22.0985 72.1076 20.256V14.8371C72.1076 12.5691 69.9744 10.9062 67.775 11.4596V11.4596C66.2271 11.8491 65.1421 13.2409 65.1421 14.8371V30.8972C65.1421 32.392 64.3988 33.789 63.1591 34.6242L60.873 36.1643L62.2023 38.1661Z" fill="#FAFDFF"/>
<path d="M75.3333 30.4571H106.116C111.733 30.4571 116.362 25.8733 116.362 20.256C116.362 14.6387 111.733 10.0999 106.116 10.0999H90.2529L96.0586 6.02497C97.5855 4.9533 97.9051 2.82216 96.7599 1.34968V1.34968C95.7245 0.0184771 93.8455 -0.304722 92.4248 0.604044L79.6426 8.78061C78.3576 9.60256 77.5802 11.0227 77.5802 12.5481V12.5481C77.5802 15.0181 79.5826 17.0204 82.0526 17.0204H106.116C107.914 17.0204 109.397 18.4585 109.397 20.256C109.397 22.0985 107.914 23.5365 106.116 23.5365L75.2718 23.1545L75.8336 24.8397L76.5565 26.9968L75.3333 30.4571Z" fill="#FAFDFF"/>
</svg>
