<svg width="902" height="105" viewBox="0 0 902 105" fill="none" xmlns="http://www.w3.org/2000/svg">
<path d="M899.932 59.0167C853.998 43.5005 730.998 59.0167 724.998 59.0167C672.998 65.5005 656.087 94.9252 686.458 101.066C736.175 111.119 769.14 79.7997 771.531 61.9683C789.039 18.9375 622.751 32.6122 508.037 59.2737C411.703 81.6636 423.592 1.67759 209.183 1.67758C158.998 1.67758 83.6046 4.9276 45.632 21.9012C-13.1129 48.1599 0.459366 37.6605 19.8284 14.6115C49.9025 -21.1766 13.4089 23.0027 2.47135 35.489C1.90036 36.1408 2.5018 37.1485 3.36836 37.1493C60.6824 37.203 -44.1219 39.2419 52.0461 37.1487" stroke="#6B8AF8" stroke-width="3" stroke-linecap="round" stroke-dasharray="5 8"/>
</svg>
