<svg width="88" height="103" viewBox="0 0 88 103" fill="none" xmlns="http://www.w3.org/2000/svg">
<path d="M42.3612 30.271C43.4494 30.4097 44.5506 30.4097 45.6388 30.271C47.3719 30.0501 49.307 29.22 52.3197 26.8006C55.4212 24.3098 59.0815 20.6288 64.4 15.2626L77.5048 2.04031C79.6917 -0.166167 83.2532 -0.182056 85.4597 2.00482C87.6662 4.1917 87.682 7.75322 85.4952 9.95969L72.1542 23.4202C67.1297 28.49 63.0231 32.6335 59.364 35.5721C55.5591 38.6278 51.6971 40.8398 47.0612 41.4307C45.0285 41.6898 42.9715 41.6898 40.9388 41.4307C36.3029 40.8398 32.4409 38.6278 28.6359 35.5721C24.9769 32.6335 20.8703 28.49 15.8457 23.4201L2.50482 9.95969C0.317942 7.75322 0.333832 4.1917 2.54031 2.00482C4.74679 -0.182056 8.3083 -0.166167 10.4952 2.04031L23.6 15.2626C28.9185 20.6288 32.5788 24.3098 35.6803 26.8005C38.693 29.22 40.6281 30.0501 42.3612 30.271Z" fill="#CCE0EB"/>
<path d="M42.3612 60.8833C43.4494 61.022 44.5506 61.022 45.6388 60.8833C47.3719 60.6624 49.307 59.8323 52.3197 57.4129C55.4212 54.9221 59.0815 51.2411 64.4 45.8749L77.5048 32.6526C79.6917 30.4461 83.2532 30.4302 85.4597 32.6171C87.6662 34.804 87.682 38.3655 85.4952 40.572L72.1542 54.0325C67.1297 59.1023 63.0231 63.2458 59.364 66.1844C55.5591 69.2401 51.6971 71.4521 47.0612 72.043C45.0285 72.3021 42.9715 72.3021 40.9388 72.043C36.3029 71.4521 32.4409 69.2401 28.6359 66.1844C24.9769 63.2458 20.8703 59.1023 15.8457 54.0324L2.50482 40.572C0.317942 38.3655 0.333832 34.804 2.54031 32.6171C4.74679 30.4302 8.3083 30.4461 10.4952 32.6526L23.6 45.8749C28.9185 51.2411 32.5788 54.9221 35.6803 57.4129C38.693 59.8323 40.6281 60.6624 42.3612 60.8833Z" fill="#CCE0EB"/>
<path d="M42.3612 91.4956C43.4494 91.6343 44.5506 91.6343 45.6388 91.4956C47.3719 91.2747 49.307 90.4446 52.3197 88.0252C55.4212 85.5344 59.0815 81.8534 64.4 76.4872L77.5048 63.2649C79.6917 61.0584 83.2532 61.0426 85.4597 63.2294C87.6662 65.4163 87.682 68.9778 85.4952 71.1843L72.1542 84.6448C67.1297 89.7146 63.0231 93.8581 59.364 96.7967C55.5591 99.8524 51.6971 102.064 47.0612 102.655C45.0285 102.914 42.9715 102.914 40.9388 102.655C36.3029 102.064 32.4409 99.8524 28.6359 96.7967C24.9769 93.8581 20.8703 89.7146 15.8457 84.6447L2.50482 71.1843C0.317942 68.9778 0.333832 65.4163 2.54031 63.2294C4.74679 61.0426 8.3083 61.0584 10.4952 63.2649L23.6 76.4872C28.9185 81.8534 32.5788 85.5344 35.6803 88.0252C38.693 90.4446 40.6281 91.2747 42.3612 91.4956Z" fill="#CCE0EB"/>
</svg>
