<svg width="346" height="446" viewBox="0 0 346 446" fill="none" xmlns="http://www.w3.org/2000/svg">
<rect x="345.037" y="380.451" width="251.151" height="393.891" rx="10.841" transform="rotate(164.91 345.037 380.451)" fill="url(#paint0_linear_0_14216)"/>
<mask id="mask0_0_14216" style="mask-type:alpha" maskUnits="userSpaceOnUse" x="2" y="2" width="341" height="442">
<rect x="345.037" y="380.451" width="251.151" height="393.891" rx="10.841" transform="rotate(164.91 345.037 380.451)" fill="url(#paint1_linear_0_14216)"/>
</mask>
<g mask="url(#mask0_0_14216)">
<g opacity="0.6">
<rect x="143.824" y="116.573" width="46.0744" height="60.5291" rx="4.5171" transform="rotate(164.91 143.824 116.573)" fill="url(#paint2_linear_0_14216)" stroke="#2F333C" stroke-width="0.903419"/>
<rect x="130.496" y="94.9039" width="31.6197" height="12.6479" rx="4.5171" transform="rotate(164.91 130.496 94.9039)" stroke="#2F333C" stroke-width="0.903419"/>
<path d="M119.068 60.4305L125.648 84.8306" stroke="#2F333C" stroke-width="0.903419"/>
<path d="M128.255 94.4955L134.834 118.896" stroke="#2F333C" stroke-width="0.903419"/>
<path d="M105.968 63.9633L112.184 87.0174" stroke="#2F333C" stroke-width="0.903419"/>
<path d="M115.506 99.3386L121.722 122.393" stroke="#2F333C" stroke-width="0.903419"/>
<path d="M92.8652 67.4962L99.4445 91.8963" stroke="#2F333C" stroke-width="0.903419"/>
<path d="M102.051 101.561L108.63 125.961" stroke="#2F333C" stroke-width="0.903419"/>
</g>
<g filter="url(#filter0_i_0_14216)">
<path d="M147.537 54.3364L153.735 52.6652L153.296 51.0361L154.317 50.7608L155.684 53.8718L147.973 55.951L147.537 54.3364Z" fill="white"/>
<path d="M155.929 60.9745C156.503 60.8196 156.929 60.8318 157.205 61.0111C157.481 61.1903 157.712 61.6251 157.898 62.3153L158.958 66.2469C159.145 66.9372 159.163 67.4292 159.015 67.723C158.867 68.0216 158.507 68.2484 157.932 68.4033L157.44 68.536C157.068 68.6362 156.768 68.6551 156.539 68.5926C156.311 68.535 156.003 68.3254 155.616 67.9638L151.674 64.2035L152.872 68.6492L154.002 68.3446L153.984 69.8639L153.376 70.0279C152.802 70.1828 152.376 70.1682 152.098 69.9841C151.822 69.8048 151.591 69.3701 151.405 68.6798L149.669 62.243L150.364 62.0556C150.702 61.9645 150.982 61.9642 151.203 62.0547C151.425 62.1501 151.699 62.3482 152.023 62.649L156.709 67.0633L157.708 66.7938L156.533 62.4351L154.954 62.8607L154.937 61.242L155.929 60.9745Z" fill="white"/>
<path d="M153.219 75.4062C153.032 74.716 153.013 74.2215 153.16 73.9229C153.309 73.6291 153.67 73.4048 154.245 73.2499L154.868 73.082L155.617 74.5653L154.545 74.8543L155.658 78.9813C155.738 79.2758 155.836 79.4589 155.954 79.5307C156.073 79.6074 156.27 79.6086 156.545 79.5344L157.103 79.3841C157.383 79.3086 157.555 79.2078 157.619 79.0817C157.689 78.9543 157.684 78.7458 157.606 78.4562L156.909 75.8713L158.154 75.5355L158.775 77.838C158.853 78.1276 158.951 78.3083 159.069 78.3801C159.187 78.4519 159.386 78.4501 159.666 78.3746L160.049 78.2711C160.334 78.1943 160.509 78.0953 160.575 77.974C160.641 77.8528 160.634 77.6473 160.556 77.3577L159.537 73.5782L158.582 73.8359L158.456 72.2465L158.934 72.1176C159.508 71.9627 159.933 71.9749 160.21 72.1542C160.486 72.3334 160.717 72.7682 160.903 73.4585L162.02 77.6C162.206 78.2903 162.225 78.7823 162.076 79.0761C161.927 79.3699 161.566 79.5942 160.991 79.7491L160.296 79.9365C159.847 80.0576 159.485 80.0388 159.209 79.8801C158.934 79.7215 158.678 79.3787 158.443 78.8519C158.55 79.4805 158.517 79.9711 158.343 80.3236C158.168 80.676 157.842 80.9167 157.364 81.0456L156.561 81.2623C155.933 81.4315 155.465 81.4128 155.155 81.2063C154.851 80.9984 154.605 80.547 154.417 79.8519L153.219 75.4062Z" fill="white"/>
<path d="M157.2 90.5188L158.974 90.0405L157.41 84.2409L158.692 83.8953L165.01 88.3432L165.463 90.023L160.691 91.3096L161.191 93.1631L159.909 93.5087L159.41 91.6551L157.636 92.1335L157.2 90.5188ZM160.256 89.6949L163.681 88.7715L159.127 85.5099L160.256 89.6949Z" fill="white"/>
<path d="M163.972 101.718L168.332 101.009L170.114 107.619L168.776 107.84L167.335 102.497L165.804 102.723C166.048 103.361 166.252 103.925 166.415 104.415C166.579 104.909 166.717 105.361 166.828 105.771C167.169 107.036 167.207 108.043 166.943 108.793C166.684 109.541 166.123 110.031 165.259 110.264C164.361 110.506 163.619 110.349 163.034 109.792C162.45 109.24 161.959 108.223 161.559 106.741C161.35 105.964 161.187 105.255 161.071 104.613C160.956 103.976 160.891 103.427 160.875 102.965L162.248 102.183C162.315 102.967 162.404 103.7 162.514 104.379C162.631 105.062 162.772 105.71 162.938 106.323C163.197 107.284 163.473 107.934 163.767 108.274C164.065 108.613 164.439 108.722 164.888 108.601C165.313 108.487 165.565 108.214 165.646 107.783C165.726 107.352 165.644 106.683 165.4 105.776C165.243 105.197 165.045 104.567 164.805 103.886C164.564 103.205 164.286 102.482 163.972 101.718Z" fill="white"/>
<path d="M167.48 114.558C167.415 114.566 167.35 114.575 167.286 114.587C167.222 114.599 167.137 114.62 167.031 114.648C166.292 114.848 165.86 115.068 165.733 115.309C165.613 115.554 165.643 116.009 165.822 116.675L166.398 118.811C166.54 119.337 166.703 119.682 166.886 119.845C167.071 120.012 167.34 120.049 167.693 119.954L168.112 119.84C168.47 119.744 168.68 119.565 168.745 119.305C168.815 119.048 168.759 118.581 168.577 117.905C168.43 117.36 168.263 116.807 168.075 116.246C167.894 115.689 167.696 115.127 167.48 114.558ZM168.666 114.347C168.911 114.908 169.13 115.462 169.324 116.011C169.525 116.562 169.699 117.111 169.846 117.656C170.179 118.892 170.263 119.778 170.097 120.315C169.936 120.85 169.483 121.218 168.74 121.419L167.705 121.698C167.067 121.87 166.54 121.784 166.121 121.441C165.702 121.099 165.372 120.478 165.13 119.58L164.257 116.344C163.997 115.379 163.987 114.672 164.229 114.223C164.471 113.775 165.04 113.43 165.938 113.188L166.945 112.916C168.368 112.532 169.602 112.728 170.644 113.503C171.693 114.282 172.46 115.569 172.944 117.365C172.962 117.432 172.979 117.505 172.995 117.584C173.017 117.666 173.039 117.776 173.061 117.916L172.116 119.305L171.983 118.812C171.544 117.185 171.078 116.05 170.583 115.407C170.093 114.762 169.454 114.409 168.666 114.347Z" fill="white"/>
<path d="M167.208 127.805L174.801 130.184L173.436 125.123L171.785 125.568L171.632 123.878L174.304 123.157L176.596 131.657L175.365 131.989L167.733 129.752L167.208 127.805Z" fill="white"/>
<path d="M179.159 141.164C179.345 141.855 179.364 142.347 179.216 142.64C179.068 142.939 178.707 143.166 178.133 143.321L177.438 143.508C176.994 143.628 176.632 143.609 176.351 143.452C176.07 143.294 175.806 142.957 175.557 142.438C175.647 143.02 175.604 143.477 175.43 143.809C175.255 144.141 174.936 144.369 174.473 144.494L173.669 144.711C173.046 144.879 172.58 144.857 172.269 144.645C171.96 144.439 171.71 143.986 171.522 143.286L170.204 138.398C170.017 137.703 170.002 137.189 170.161 136.857C170.325 136.523 170.72 136.271 171.348 136.102L172.151 135.885C172.61 135.761 172.998 135.799 173.316 135.998C173.639 136.196 173.906 136.564 174.118 137.102C174.079 136.533 174.14 136.107 174.302 135.825C174.466 135.548 174.767 135.351 175.206 135.232L175.902 135.045C176.476 134.89 176.901 134.902 177.177 135.081C177.455 135.265 177.687 135.703 177.873 136.393L179.159 141.164ZM177.696 140.922L176.733 137.352C176.654 137.058 176.552 136.873 176.429 136.798C176.31 136.721 176.11 136.721 175.83 136.796L175.446 136.899C175.171 136.974 174.999 137.074 174.93 137.202C174.865 137.328 174.873 137.538 174.952 137.833L175.915 141.402C175.993 141.692 176.091 141.873 176.209 141.944C176.328 142.021 176.527 142.022 176.807 141.946L177.191 141.843C177.476 141.766 177.65 141.664 177.715 141.538C177.78 141.417 177.774 141.212 177.696 140.922ZM174.714 141.905L173.658 137.987C173.58 137.698 173.482 137.517 173.364 137.445C173.247 137.374 173.045 137.376 172.761 137.453L172.203 137.603C171.923 137.679 171.75 137.775 171.683 137.891C171.62 138.006 171.63 138.213 171.71 138.513L172.767 142.43C172.846 142.724 172.942 142.906 173.053 142.974C173.171 143.046 173.37 143.044 173.65 142.968L174.207 142.818C174.492 142.741 174.667 142.642 174.733 142.521C174.799 142.4 174.792 142.194 174.714 141.905Z" fill="white"/>
<path d="M179.215 159.72C178.98 159.193 178.764 158.653 178.569 158.1C178.378 157.546 178.205 156.981 178.05 156.407C177.717 155.171 177.63 154.283 177.79 153.743C177.956 153.206 178.408 152.839 179.147 152.639L180.175 152.362C180.812 152.19 181.339 152.273 181.757 152.611C182.175 152.954 182.506 153.574 182.748 154.472L183.618 157.702C183.879 158.667 183.888 159.374 183.647 159.822C183.405 160.27 182.835 160.616 181.938 160.858L180.931 161.129C179.507 161.513 178.274 161.317 177.231 160.542C176.188 159.767 175.425 158.482 174.941 156.686C174.901 156.536 174.872 156.422 174.856 156.344C174.837 156.271 174.823 156.2 174.814 156.13L175.755 154.75L175.886 155.235C176.325 156.867 176.793 158.004 177.287 158.648C177.783 159.296 178.426 159.653 179.215 159.72ZM180.412 159.491C180.502 159.482 180.587 159.469 180.666 159.453C180.75 159.441 180.822 159.427 180.879 159.411C181.632 159.208 182.074 158.983 182.204 158.735C182.334 158.488 182.309 158.029 182.128 157.358L181.556 155.236C181.411 154.701 181.244 154.35 181.054 154.183C180.864 154.017 180.586 153.983 180.219 154.082L179.792 154.197C179.42 154.298 179.2 154.479 179.131 154.741C179.062 155.003 179.12 155.476 179.304 156.162C179.435 156.645 179.591 157.167 179.773 157.729C179.962 158.294 180.175 158.881 180.412 159.491Z" fill="white"/>
<path d="M179.239 166.432L180.713 171.899L185.687 170.557L184.213 165.091L179.239 166.432ZM183.275 163.627C183.974 163.438 184.482 163.431 184.799 163.605C185.121 163.782 185.373 164.208 185.555 164.884L186.951 170.061C187.135 170.742 187.131 171.237 186.94 171.547C186.756 171.861 186.313 172.113 185.613 172.301L181.581 173.389C180.881 173.578 180.37 173.583 180.047 173.406C179.731 173.232 179.481 172.805 179.298 172.125L177.902 166.948C177.72 166.272 177.721 165.777 177.906 165.463C178.096 165.153 178.542 164.903 179.242 164.715L183.275 163.627Z" fill="white"/>
<path d="M181.563 180.524L187.761 178.852L187.321 177.223L188.342 176.948L189.709 180.059L181.998 182.138L181.563 180.524Z" fill="white"/>
<path d="M189.954 187.162C190.529 187.007 190.954 187.019 191.23 187.198C191.506 187.378 191.738 187.812 191.924 188.503L192.984 192.434C193.17 193.124 193.189 193.616 193.04 193.91C192.893 194.209 192.532 194.436 191.958 194.59L191.465 194.723C191.094 194.823 190.793 194.842 190.564 194.78C190.336 194.722 190.028 194.513 189.641 194.151L185.699 190.391L186.898 194.836L188.027 194.532L188.01 196.051L187.401 196.215C186.827 196.37 186.401 196.355 186.124 196.171C185.847 195.992 185.616 195.557 185.43 194.867L183.695 188.43L184.39 188.243C184.728 188.152 185.007 188.151 185.228 188.242C185.451 188.337 185.724 188.535 186.049 188.836L190.734 193.25L191.733 192.981L190.558 188.622L188.98 189.048L188.962 187.429L189.954 187.162Z" fill="white"/>
<path d="M188.794 207.342C188.608 206.652 188.589 206.158 188.736 205.859C188.884 205.565 189.246 205.341 189.82 205.186L190.443 205.018L191.193 206.502L190.121 206.79L191.234 210.918C191.313 211.212 191.412 211.395 191.53 211.467C191.649 211.544 191.846 211.545 192.121 211.471L192.678 211.32C192.958 211.245 193.13 211.144 193.195 211.018C193.264 210.89 193.26 210.682 193.182 210.392L192.485 207.807L193.73 207.472L194.351 209.774C194.429 210.064 194.527 210.244 194.644 210.316C194.762 210.388 194.961 210.386 195.241 210.311L195.625 210.207C195.91 210.131 196.085 210.031 196.151 209.91C196.216 209.789 196.21 209.584 196.132 209.294L195.113 205.514L194.157 205.772L194.031 204.183L194.509 204.054C195.084 203.899 195.509 203.911 195.785 204.09C196.061 204.27 196.292 204.704 196.479 205.395L197.595 209.536C197.781 210.226 197.8 210.718 197.652 211.012C197.503 211.306 197.141 211.53 196.567 211.685L195.872 211.873C195.423 211.994 195.061 211.975 194.785 211.816C194.509 211.658 194.254 211.315 194.018 210.788C194.126 211.417 194.092 211.907 193.918 212.26C193.744 212.612 193.418 212.853 192.94 212.982L192.136 213.198C191.509 213.368 191.04 213.349 190.731 213.142C190.426 212.935 190.18 212.483 189.993 211.788L188.794 207.342Z" fill="white"/>
<path d="M192.776 222.455L194.55 221.977L192.986 216.177L194.268 215.831L200.585 220.279L201.038 221.959L196.267 223.246L196.767 225.099L195.485 225.445L194.985 223.591L193.211 224.07L192.776 222.455ZM195.831 221.631L199.256 220.708L194.703 217.446L195.831 221.631Z" fill="white"/>
<path d="M197.997 227.905L202.357 227.196L204.14 233.806L202.801 234.027L201.36 228.684L199.829 228.91C200.074 229.549 200.278 230.112 200.441 230.602C200.605 231.096 200.742 231.548 200.853 231.959C201.194 233.223 201.233 234.23 200.969 234.98C200.709 235.728 200.148 236.219 199.284 236.451C198.386 236.694 197.645 236.536 197.06 235.979C196.476 235.427 195.984 234.411 195.584 232.929C195.375 232.152 195.212 231.442 195.096 230.8C194.981 230.163 194.916 229.614 194.9 229.152L196.274 228.37C196.34 229.155 196.429 229.887 196.54 230.566C196.657 231.249 196.798 231.897 196.963 232.51C197.222 233.471 197.498 234.121 197.792 234.462C198.09 234.8 198.464 234.909 198.913 234.788C199.338 234.674 199.591 234.401 199.671 233.97C199.752 233.54 199.67 232.87 199.425 231.963C199.269 231.384 199.071 230.754 198.83 230.073C198.589 229.392 198.312 228.67 197.997 227.905Z" fill="white"/>
<path d="M201.506 240.746C201.44 240.753 201.376 240.762 201.312 240.775C201.248 240.787 201.163 240.807 201.056 240.836C200.318 241.035 199.885 241.255 199.759 241.496C199.638 241.741 199.668 242.196 199.848 242.863L200.423 244.999C200.565 245.525 200.728 245.869 200.912 246.032C201.097 246.199 201.366 246.236 201.718 246.141L202.138 246.027C202.495 245.931 202.706 245.753 202.77 245.492C202.841 245.235 202.785 244.768 202.602 244.093C202.455 243.547 202.288 242.994 202.101 242.434C201.92 241.877 201.721 241.314 201.506 240.746ZM202.692 240.535C202.936 241.095 203.155 241.65 203.35 242.198C203.55 242.75 203.724 243.298 203.871 243.844C204.204 245.079 204.288 245.965 204.122 246.502C203.961 247.038 203.509 247.405 202.765 247.606L201.73 247.885C201.093 248.057 200.565 247.971 200.146 247.629C199.728 247.286 199.397 246.665 199.155 245.768L198.282 242.531C198.022 241.566 198.013 240.859 198.254 240.411C198.496 239.962 199.066 239.617 199.963 239.375L200.97 239.104C202.394 238.72 203.627 238.915 204.67 239.69C205.719 240.469 206.485 241.756 206.969 243.552C206.988 243.62 207.005 243.693 207.021 243.771C207.043 243.853 207.065 243.964 207.087 244.103L206.141 245.492L206.008 244.999C205.57 243.373 205.103 242.238 204.608 241.594C204.119 240.95 203.48 240.596 202.692 240.535Z" fill="white"/>
</g>
</g>
<defs>
<filter id="filter0_i_0_14216" x="147.537" y="50.7608" width="61.3566" height="198.114" filterUnits="userSpaceOnUse" color-interpolation-filters="sRGB">
<feFlood flood-opacity="0" result="BackgroundImageFix"/>
<feBlend mode="normal" in="SourceGraphic" in2="BackgroundImageFix" result="shape"/>
<feColorMatrix in="SourceAlpha" type="matrix" values="0 0 0 0 0 0 0 0 0 0 0 0 0 0 0 0 0 0 127 0" result="hardAlpha"/>
<feOffset dx="1.80684" dy="0.903419"/>
<feGaussianBlur stdDeviation="0.903419"/>
<feComposite in2="hardAlpha" operator="arithmetic" k2="-1" k3="1"/>
<feColorMatrix type="matrix" values="0 0 0 0 0 0 0 0 0 0 0 0 0 0 0 0 0 0 0.15 0"/>
<feBlend mode="normal" in2="shape" result="effect1_innerShadow_0_14216"/>
</filter>
<linearGradient id="paint0_linear_0_14216" x1="470.612" y1="380.451" x2="470.612" y2="774.342" gradientUnits="userSpaceOnUse">
<stop stop-color="#0B3FF5"/>
<stop offset="1" stop-color="#B1C3FF"/>
</linearGradient>
<linearGradient id="paint1_linear_0_14216" x1="470.612" y1="380.451" x2="470.612" y2="774.342" gradientUnits="userSpaceOnUse">
<stop stop-color="#E42C64"/>
<stop offset="1" stop-color="#614AD3"/>
</linearGradient>
<linearGradient id="paint2_linear_0_14216" x1="166.861" y1="116.573" x2="166.861" y2="177.103" gradientUnits="userSpaceOnUse">
<stop stop-color="#F78E0F"/>
<stop offset="1" stop-color="#FAB869"/>
</linearGradient>
</defs>
</svg>
