<svg width="215" height="31" viewBox="0 0 215 31" fill="none" xmlns="http://www.w3.org/2000/svg">
<path d="M9.46678 24C12.8394 24 15.375 23.0882 17.0738 21.2645C18.7976 19.4408 19.6595 16.5803 19.6595 12.6831C19.6595 8.61103 18.7976 5.66314 17.0738 3.83945C15.375 1.99077 12.8394 1.06644 9.46678 1.06644H0.0610229V24H9.46678ZM8.71732 6.4251C9.99141 6.4251 10.9782 6.63744 11.6777 7.06214C12.4022 7.46185 12.9143 8.11139 13.2141 9.01074C13.5139 9.88512 13.6638 11.1092 13.6638 12.6831C13.6638 14.3819 13.4764 15.6935 13.1017 16.6178C12.7269 17.5171 12.1898 18.1417 11.4903 18.4914C10.7908 18.8162 9.8665 18.9786 8.71732 18.9786H6.01925V6.4251H8.71732ZM29.7731 0.0546609H23.4027V4.81375H29.7731V0.0546609ZM29.7731 7.13709H22.0162L21.5665 11.8962H23.8524V24H29.7731V7.13709ZM40.8804 30.258C46.6762 30.258 49.5742 28.5467 49.5742 25.1242C49.5742 23.6253 49.1245 22.5136 48.2251 21.7891C47.3258 21.0396 46.0642 20.6649 44.4403 20.6649H41.1427C40.5681 20.6649 40.1559 20.6024 39.9061 20.4775C39.6813 20.3526 39.5688 20.1403 39.5688 19.8405C39.5688 19.166 40.1934 18.7787 41.4425 18.6788C41.9671 18.7538 42.5792 18.7912 43.2787 18.7912C45.3022 18.7912 46.7762 18.3166 47.7005 17.3673C48.6498 16.393 49.1245 14.9815 49.1245 13.1328C49.1245 12.3084 48.8872 11.6214 48.4125 11.0718H50.5859L50.6984 7.13709H44.6277C44.3279 7.06214 43.8283 6.98719 43.1288 6.91225C42.4293 6.81232 41.8297 6.76235 41.3301 6.76235C36.0589 6.76235 33.4232 8.86085 33.4232 13.0578C33.4232 14.232 33.6231 15.2188 34.0228 16.0182C34.4475 16.7927 35.1095 17.4047 36.0089 17.8544C35.1595 18.1292 34.4975 18.5414 34.0228 19.091C33.5482 19.6406 33.3108 20.3026 33.3108 21.0771C33.3108 22.1763 33.723 22.9757 34.5474 23.4754C35.3968 23.975 36.7084 24.2248 38.4821 24.2248H42.3793C43.1538 24.2248 43.6909 24.2873 43.9907 24.4122C44.2905 24.5621 44.4403 24.8494 44.4403 25.2741C44.4403 25.7487 44.1031 26.061 43.4286 26.2109C42.7541 26.3858 41.7922 26.4732 40.5431 26.4732C39.394 26.4732 38.2073 26.3983 36.9832 26.2484C35.7591 26.0985 34.7223 25.8737 33.8729 25.5739V29.3961C34.5974 29.6709 35.6217 29.8833 36.9457 30.0332C38.2948 30.1831 39.6063 30.258 40.8804 30.258ZM41.3676 15.1938C40.3683 15.1938 39.6563 15.0064 39.2316 14.6317C38.8319 14.257 38.632 13.6574 38.632 12.833C38.632 11.9836 38.8444 11.3591 39.2691 10.9593C39.7187 10.5596 40.4182 10.3598 41.3676 10.3598C42.3419 10.3598 43.0414 10.5596 43.466 10.9593C43.8907 11.3341 44.1031 11.9586 44.1031 12.833C44.1031 13.7074 43.8907 14.3194 43.466 14.6692C43.0414 15.0189 42.3419 15.1938 41.3676 15.1938ZM60.3298 0.0546609H53.9594V4.81375H60.3298V0.0546609ZM60.3298 7.13709H52.5729L52.1232 11.8962H54.4091V24H60.3298V7.13709ZM71.2497 24.3747C72.6737 24.3747 74.0353 24.0999 75.3343 23.5503V19.3908C74.7347 19.6406 74.0977 19.7655 73.4232 19.7655C72.0242 19.7655 71.3247 19.091 71.3247 17.742V11.8962H74.8472L74.9596 7.13709H71.3247V2.07821L65.4039 3.42724V7.13709H63.3054V11.8962H65.4039V18.0792C65.4039 20.1528 65.9036 21.7266 66.9029 22.8009C67.9021 23.8501 69.3511 24.3747 71.2497 24.3747ZM83.0251 24.3747C85.3484 24.3747 87.1721 23.7502 88.4962 22.5011L88.7585 24H93.9298V13.5825C93.9298 11.2841 93.2303 9.57284 91.8313 8.44865C90.4573 7.32445 88.5087 6.76235 85.9855 6.76235C84.8363 6.76235 83.6746 6.86228 82.5005 7.06214C81.3263 7.23701 80.3145 7.52431 79.4651 7.92402V11.5589C81.2139 10.9593 82.9751 10.6596 84.7489 10.6596C86.0229 10.6596 86.9348 10.8344 87.4844 11.1842C88.034 11.509 88.3088 12.0336 88.3088 12.7581V13.47H83.9994C79.7025 13.47 77.554 15.3062 77.554 18.9786C77.554 20.8023 78.0661 22.1638 79.0904 23.0632C80.1147 23.9375 81.4262 24.3747 83.0251 24.3747ZM85.1985 20.6649C83.7496 20.6649 83.0251 20.0528 83.0251 18.8287C83.0251 17.5296 83.837 16.8801 85.4608 16.8801H88.3088V19.3533C87.9091 19.803 87.4594 20.1403 86.9598 20.3651C86.4851 20.565 85.898 20.6649 85.1985 20.6649ZM103.087 24.3747C103.786 24.3747 104.399 24.3248 104.923 24.2248C105.473 24.1249 106.06 23.9251 106.684 23.6253V19.4657C106.26 19.6656 105.71 19.7655 105.036 19.7655C104.611 19.7655 104.311 19.6531 104.136 19.4283C103.961 19.1785 103.874 18.7912 103.874 18.2666V0.0171882H97.9157V19.0161C97.9157 20.8897 98.3154 22.2513 99.1148 23.1006C99.9392 23.95 101.263 24.3747 103.087 24.3747Z" fill="#737B7F"/>
<path d="M128.519 16.0932L130.992 24H136.313L140.473 7.13709H134.814L132.828 15.7184L130.505 7.13709H126.196V9.49789L124.21 15.7184L122.186 7.13709H116.528L120.65 24H126.046L128.519 16.0932ZM147.066 24.3747C149.389 24.3747 151.213 23.7502 152.537 22.5011L152.799 24H157.971V13.5825C157.971 11.2841 157.271 9.57284 155.872 8.44865C154.498 7.32445 152.55 6.76235 150.026 6.76235C148.877 6.76235 147.716 6.86228 146.541 7.06214C145.367 7.23701 144.356 7.52431 143.506 7.92402V11.5589C145.255 10.9593 147.016 10.6596 148.79 10.6596C150.064 10.6596 150.976 10.8344 151.525 11.1842C152.075 11.509 152.35 12.0336 152.35 12.7581V13.47H148.04C143.743 13.47 141.595 15.3062 141.595 18.9786C141.595 20.8023 142.107 22.1638 143.131 23.0632C144.156 23.9375 145.467 24.3747 147.066 24.3747ZM149.24 20.6649C147.791 20.6649 147.066 20.0528 147.066 18.8287C147.066 17.5296 147.878 16.8801 149.502 16.8801H152.35V19.3533C151.95 19.803 151.5 20.1403 151.001 20.3651C150.526 20.565 149.939 20.6649 149.24 20.6649ZM167.128 24.3747C167.827 24.3747 168.44 24.3248 168.964 24.2248C169.514 24.1249 170.101 23.9251 170.725 23.6253V19.4657C170.301 19.6656 169.751 19.7655 169.077 19.7655C168.652 19.7655 168.352 19.6531 168.177 19.4283C168.002 19.1785 167.915 18.7912 167.915 18.2666V0.0171882H161.957V19.0161C161.957 20.8897 162.356 22.2513 163.156 23.1006C163.98 23.95 165.304 24.3747 167.128 24.3747ZM177.96 24.3747C178.66 24.3747 179.272 24.3248 179.796 24.2248C180.346 24.1249 180.933 23.9251 181.557 23.6253V19.4657C181.133 19.6656 180.583 19.7655 179.909 19.7655C179.484 19.7655 179.184 19.6531 179.009 19.4283C178.834 19.1785 178.747 18.7912 178.747 18.2666V0.0171882H172.789V19.0161C172.789 20.8897 173.188 22.2513 173.988 23.1006C174.812 23.95 176.136 24.3747 177.96 24.3747ZM193.154 24.3747C195.752 24.3747 197.85 23.975 199.449 23.1756V19.5782C198.825 19.828 198.088 20.0403 197.238 20.2152C196.389 20.3651 195.539 20.4401 194.69 20.4401C193.091 20.4401 191.867 20.1902 191.018 19.6906C190.168 19.1909 189.619 18.4415 189.369 17.4422H200.311V14.5568C200.311 12.0586 199.574 10.1349 198.1 8.7859C196.626 7.43687 194.678 6.76235 192.254 6.76235C189.606 6.76235 187.558 7.52431 186.109 9.04822C184.66 10.5471 183.935 12.7206 183.935 15.5685C183.935 18.4165 184.747 20.6024 186.371 22.1263C188.02 23.6253 190.281 24.3747 193.154 24.3747ZM189.369 14.0321C189.369 11.8087 190.393 10.697 192.442 10.697C193.391 10.697 194.091 10.9344 194.54 11.409C194.99 11.8837 195.215 12.5207 195.215 13.3202V14.0321H189.369ZM210.53 24.3747C211.954 24.3747 213.315 24.0999 214.614 23.5503V19.3908C214.015 19.6406 213.378 19.7655 212.703 19.7655C211.304 19.7655 210.605 19.091 210.605 17.742V11.8962H214.127L214.24 7.13709H210.605V2.07821L204.684 3.42724V7.13709H202.585V11.8962H204.684V18.0792C204.684 20.1528 205.184 21.7266 206.183 22.8009C207.182 23.8501 208.631 24.3747 210.53 24.3747Z" fill="#99A3A9"/>
</svg>
