<svg width="811" height="534" viewBox="0 0 811 534" fill="none" xmlns="http://www.w3.org/2000/svg">
<g clip-path="url(#clip0_0_29990)">
<g style="mix-blend-mode:screen" opacity="0.67">
<path d="M40.9066 533.304C28.1517 479.002 42.4366 441.794 83.5668 413.85C113.5 393.515 175.258 376.768 196.65 347.572C205.858 335.012 210.949 319.99 217.403 305.816C245.138 244.837 306.382 195.709 373.314 198.227C418.464 199.924 460.066 224.071 493.922 254.018C518.277 275.563 540.783 301.059 571.3 312.284C601.915 323.537 665.94 332.272 691.352 352.733C771.846 417.536 746.489 502.634 735.222 533.082" fill="url(#paint0_linear_0_29990)"/>
</g>
<path d="M505.647 511.675C505.647 511.675 534.899 468.793 549.671 490.575C563.58 511.077 511.893 521.704 511.893 521.704" fill="url(#paint1_linear_0_29990)"/>
<path d="M322.572 483.314C322.572 483.314 284.655 447.873 308.426 436.592C330.807 425.966 333.436 478.668 333.436 478.668" fill="url(#paint2_linear_0_29990)"/>
<path d="M585.599 532.776H196.539C196.776 531.886 198.222 530.383 202.089 527.908C210.365 522.566 236.515 527.365 236.515 527.365C236.515 527.365 230.422 524.931 230.464 521.774C230.492 518.63 232.87 515.862 235.736 514.555C238.615 513.261 241.87 513.164 245.013 513.344C251.412 513.706 257.754 515.139 263.694 517.531C261.162 515.959 260.397 512.162 262.108 509.77C263.833 507.363 267.686 506.849 269.967 508.726C265.933 503.288 256.516 475.9 275.6 465.273C299.524 451.962 320.903 466.205 324.77 474.203C326.731 466.345 335.758 460.35 341.712 458.917C370.073 452.087 390.798 476.457 391.076 476.874C391.354 476.457 391.632 476.039 391.938 475.622C394.915 471.672 400.896 464.55 405.389 462.45C418.046 456.538 426.865 455.537 440.427 458.903C446.366 460.377 455.393 466.331 457.368 474.189C461.235 466.178 482.948 448.207 506.218 462.631C527.36 475.733 516.205 503.274 512.171 508.713C514.452 506.821 518.305 507.336 520.03 509.756C521.741 512.148 520.976 515.959 518.444 517.517C524.384 515.125 530.726 513.692 537.125 513.331C540.268 513.15 543.537 513.247 546.402 514.541C549.268 515.848 551.646 518.616 551.674 521.76C551.702 524.917 545.623 527.351 545.623 527.351C545.623 527.351 571.759 522.552 580.049 527.894C583.916 530.37 585.349 531.872 585.599 532.762V532.776Z" fill="url(#paint3_linear_0_29990)"/>
<path d="M649.681 94.7271H577.519C574.193 94.7271 571.496 97.4235 571.496 100.75V154.078C571.496 157.405 574.193 160.101 577.519 160.101H649.681C653.007 160.101 655.704 157.405 655.704 154.078V100.75C655.704 97.4235 653.007 94.7271 649.681 94.7271Z" fill="url(#paint4_linear_0_29990)"/>
<path d="M603.181 113.894L624.31 126.093C625.325 126.677 625.325 128.137 624.31 128.722L603.181 140.92C602.166 141.504 600.914 140.781 600.914 139.613V115.216C600.914 114.047 602.18 113.324 603.181 113.908V113.894Z" fill="url(#paint5_linear_0_29990)"/>
<path d="M653.853 169.49H573.36C572.33 169.49 571.51 168.656 571.51 167.64C571.51 166.611 572.344 165.79 573.36 165.79H653.853C654.883 165.79 655.703 166.625 655.703 167.64C655.703 168.67 654.869 169.49 653.853 169.49Z" fill="url(#paint6_linear_0_29990)"/>
<path d="M655.718 167.64C655.718 168.67 654.883 169.49 653.868 169.49H599.732V165.776H653.868C654.897 165.776 655.718 166.611 655.718 167.626V167.64Z" fill="url(#paint7_linear_0_29990)"/>
<path d="M604.683 167.64C604.683 170.38 602.458 172.606 599.718 172.606C596.977 172.606 594.752 170.38 594.752 167.64C594.752 164.9 596.977 162.675 599.718 162.675C602.458 162.675 604.683 164.9 604.683 167.64Z" fill="url(#paint8_linear_0_29990)"/>
<path d="M602.528 167.64C602.528 169.198 601.262 170.45 599.718 170.45C598.174 170.45 596.908 169.184 596.908 167.64C596.908 166.096 598.174 164.83 599.718 164.83C601.262 164.83 602.528 166.096 602.528 167.64Z" fill="url(#paint9_linear_0_29990)"/>
<path d="M211.506 226.908C196.387 226.908 184.091 214.612 184.091 199.493C184.091 184.373 196.387 172.077 211.506 172.077C226.626 172.077 238.922 184.373 238.922 199.493C238.922 214.612 226.626 226.908 211.506 226.908ZM211.506 175.708C198.39 175.708 187.721 186.376 187.721 199.493C187.721 212.609 198.39 223.278 211.506 223.278C224.623 223.278 235.291 212.609 235.291 199.493C235.291 186.376 224.623 175.708 211.506 175.708Z" fill="url(#paint10_linear_0_29990)"/>
<path d="M223.58 205.974C223.58 204.152 223.121 202.692 222.245 201.593C221.327 200.466 220.186 199.618 218.837 199.047C217.529 198.505 215.93 198.004 214.08 197.559V188.713C215.443 188.88 216.806 189.227 218.127 189.742C219.379 190.229 220.742 189.659 221.243 188.435C221.493 187.837 221.48 187.127 221.243 186.543C221.007 185.987 220.575 185.569 220.033 185.347C218.322 184.665 216.319 184.234 214.094 184.025V181.327C214.094 179.908 212.939 178.754 211.52 178.754C210.102 178.754 208.947 179.908 208.947 181.327V184.137C205.929 184.554 203.578 185.555 201.965 187.141C200.282 188.81 199.461 190.744 199.461 193.08C199.461 194.916 199.906 196.405 200.782 197.49C201.7 198.616 202.855 199.479 204.218 200.063C205.512 200.619 207.125 201.134 208.947 201.593V210.328C207.403 210.161 205.887 209.799 204.441 209.257C203.926 209.062 203.411 208.854 202.938 208.631C202.646 208.492 202.354 208.422 202.034 208.422C201.77 208.422 201.506 208.464 201.255 208.562C200.643 208.784 200.129 209.257 199.864 209.855C199.322 211.051 199.864 212.47 201.047 213.026C201.714 213.332 202.451 213.625 203.23 213.875C205.039 214.473 206.958 214.835 208.947 214.974V217.672C208.947 219.091 210.102 220.245 211.52 220.245C212.939 220.245 214.094 219.091 214.094 217.672V214.835C217.126 214.403 219.477 213.402 221.104 211.83C222.787 210.189 223.608 208.283 223.608 205.988L223.58 205.974ZM206.471 195.014C205.776 194.416 205.414 193.651 205.414 192.719C205.414 191.787 205.734 190.966 206.374 190.285C206.944 189.659 207.821 189.2 208.933 188.908V196.252C207.876 195.918 207.055 195.501 206.471 195.014ZM216.611 208.868C216.027 209.452 215.165 209.883 214.066 210.133V202.9C215.137 203.276 215.944 203.707 216.542 204.222C217.223 204.82 217.585 205.585 217.585 206.503C217.585 207.421 217.265 208.2 216.611 208.854V208.868Z" fill="url(#paint11_linear_0_29990)"/>
<path d="M644.408 533.304H692.882V339.56H644.408V533.304Z" fill="url(#paint12_linear_0_29990)"/>
<path d="M641.696 533.304H686.456V339.56H641.696V533.304Z" fill="url(#paint13_linear_0_29990)"/>
<path d="M594.098 387.269L600.969 386.449L619.315 270.764C619.496 269.665 620.442 268.845 621.555 268.845H748.45L749.702 264.881L754.737 268.08C754.737 268.08 754.849 268.149 754.89 268.177H754.904C755.516 268.664 755.878 269.457 755.739 270.305L736.864 389.342C736.683 390.441 735.737 391.261 734.624 391.261H600.983C600.399 391.261 599.87 391.025 599.467 390.663L594.112 387.242L594.098 387.269Z" fill="url(#paint14_linear_0_29990)"/>
<path d="M595.6 387.826H729.241C730.354 387.826 731.314 387.019 731.481 385.907L750.356 266.87C750.578 265.493 749.507 264.241 748.116 264.241H614.475C613.362 264.241 612.402 265.048 612.235 266.16L593.36 385.197C593.138 386.574 594.209 387.826 595.6 387.826Z" fill="url(#paint15_linear_0_29990)"/>
<path d="M601.845 382.179H724.512C725.221 382.179 725.82 381.664 725.931 380.969L743.276 271.571C743.415 270.695 742.733 269.902 741.857 269.902H619.19C618.481 269.902 617.883 270.417 617.771 271.112L600.426 380.51C600.287 381.386 600.969 382.179 601.845 382.179Z" fill="url(#paint16_linear_0_29990)"/>
<path d="M644.325 330.617H685.094C685.984 330.617 686.749 329.963 686.888 329.073L692.619 292.964C692.799 291.851 691.937 290.85 690.824 290.85H650.056C649.166 290.85 648.401 291.503 648.262 292.394L642.531 328.502C642.35 329.615 643.212 330.617 644.325 330.617Z" fill="url(#paint17_linear_0_29990)"/>
<path d="M652.086 325.72H649.276C648.859 325.72 648.581 325.387 648.65 324.969L652.016 303.757C652.086 303.34 652.475 303.006 652.879 303.006H655.688C656.106 303.006 656.384 303.34 656.314 303.757L652.948 324.969C652.879 325.387 652.489 325.72 652.086 325.72Z" fill="#EDF7FF"/>
<path d="M659.347 325.721H656.537C656.12 325.721 655.841 325.387 655.911 324.969L658.582 308.153C658.651 307.736 659.041 307.402 659.444 307.402H662.254C662.671 307.402 662.949 307.736 662.88 308.153L660.209 324.969C660.139 325.387 659.764 325.721 659.347 325.721Z" fill="#EDF7FF"/>
<path d="M666.621 325.721H663.811C663.394 325.721 663.116 325.387 663.185 324.969L666.357 305.009C666.426 304.592 666.816 304.258 667.219 304.258H670.029C670.446 304.258 670.724 304.592 670.655 305.009L667.483 324.969C667.414 325.387 667.024 325.721 666.621 325.721Z" fill="#EDF7FF"/>
<path d="M673.882 325.72H671.072C670.655 325.72 670.377 325.387 670.446 324.969L675.189 295.148C675.259 294.73 675.648 294.396 676.052 294.396H678.861C679.279 294.396 679.557 294.73 679.487 295.148L674.744 324.969C674.675 325.387 674.285 325.72 673.882 325.72Z" fill="#EDF7FF"/>
<path d="M681.156 325.72H678.347C677.929 325.72 677.651 325.387 677.721 324.969L681.476 301.337C681.546 300.92 681.935 300.586 682.339 300.586H685.148C685.566 300.586 685.844 300.92 685.774 301.337L682.019 324.969C681.949 325.387 681.56 325.72 681.156 325.72Z" fill="#EDF7FF"/>
<path opacity="0.5" d="M696.068 356.099H718.448C718.935 356.099 719.366 355.737 719.435 355.25L722.579 335.429C722.676 334.817 722.204 334.275 721.591 334.275H699.211C698.724 334.275 698.293 334.636 698.224 335.123L695.08 354.944C694.983 355.556 695.456 356.099 696.068 356.099Z" fill="url(#paint18_linear_0_29990)"/>
<path opacity="0.3" d="M650.334 371.204H700.018C700.686 371.204 701.256 370.717 701.367 370.05L705.651 343.079C705.777 342.259 705.151 341.508 704.302 341.508H654.618C653.95 341.508 653.38 341.994 653.269 342.662L648.984 369.632C648.859 370.453 649.499 371.204 650.334 371.204Z" fill="url(#paint19_linear_0_29990)"/>
<path d="M656.174 353.094L654.366 364.486H698.07L700.309 350.396C700.309 350.396 697.583 348.949 693.911 350.966C691.031 352.552 686.859 357.114 683.965 356.794C681.072 356.474 679.292 349.102 675.369 349.158C671.447 349.213 668.248 357.281 665.104 357.364C661.961 357.448 658.233 353.011 656.174 353.108V353.094Z" fill="url(#paint20_linear_0_29990)"/>
<path opacity="0.5" d="M702.355 300.684H726.501C726.821 300.684 727.1 300.447 727.155 300.127L729.228 287.025C729.297 286.621 728.977 286.26 728.574 286.26H704.427C704.107 286.26 703.829 286.496 703.773 286.816L701.701 299.919C701.631 300.322 701.951 300.684 702.355 300.684Z" fill="url(#paint21_linear_0_29990)"/>
<path d="M706.625 306.317H719.435C719.811 306.317 720.159 306.011 720.228 305.635C720.284 305.26 720.034 304.954 719.658 304.954H706.847C706.472 304.954 706.124 305.26 706.055 305.635C705.999 306.011 706.249 306.317 706.625 306.317Z" fill="url(#paint22_linear_0_29990)"/>
<path d="M706.222 308.862H719.032C719.408 308.862 719.755 308.556 719.825 308.181C719.881 307.805 719.63 307.499 719.255 307.499H706.444C706.069 307.499 705.721 307.805 705.651 308.181C705.596 308.556 705.846 308.862 706.222 308.862Z" fill="url(#paint23_linear_0_29990)"/>
<path d="M705.818 311.421H718.629C719.004 311.421 719.352 311.115 719.422 310.74C719.477 310.364 719.227 310.058 718.851 310.058H706.041C705.665 310.058 705.318 310.364 705.248 310.74C705.192 311.115 705.443 311.421 705.818 311.421Z" fill="url(#paint24_linear_0_29990)"/>
<path d="M712.509 313.981H718.239C718.615 313.981 718.963 313.675 719.032 313.299C719.088 312.924 718.838 312.618 718.462 312.618H712.731C712.356 312.618 712.008 312.924 711.938 313.299C711.883 313.675 712.133 313.981 712.509 313.981Z" fill="url(#paint25_linear_0_29990)"/>
<path d="M620.595 350.187H633.405C633.781 350.187 634.128 349.881 634.198 349.506C634.254 349.13 634.003 348.824 633.628 348.824H620.817C620.442 348.824 620.094 349.13 620.024 349.506C619.969 349.881 620.219 350.187 620.595 350.187Z" fill="url(#paint26_linear_0_29990)"/>
<path d="M620.191 352.746H633.002C633.377 352.746 633.725 352.44 633.795 352.065C633.85 351.689 633.6 351.383 633.224 351.383H620.414C620.038 351.383 619.691 351.689 619.621 352.065C619.565 352.44 619.816 352.746 620.191 352.746Z" fill="url(#paint27_linear_0_29990)"/>
<path d="M619.788 355.292H632.599C632.974 355.292 633.322 354.986 633.391 354.61C633.447 354.235 633.197 353.929 632.821 353.929H620.011C619.635 353.929 619.287 354.235 619.218 354.61C619.162 354.986 619.412 355.292 619.788 355.292Z" fill="url(#paint28_linear_0_29990)"/>
<path d="M626.479 357.851H632.21C632.586 357.851 632.933 357.545 633.003 357.17C633.059 356.794 632.808 356.488 632.433 356.488H626.702C626.326 356.488 625.979 356.794 625.909 357.17C625.853 357.545 626.104 357.851 626.479 357.851Z" fill="url(#paint29_linear_0_29990)"/>
<path d="M626.507 292.268H639.317C639.693 292.268 640.041 291.962 640.11 291.587C640.166 291.211 639.915 290.905 639.54 290.905H626.729C626.354 290.905 626.006 291.211 625.936 291.587C625.881 291.962 626.131 292.268 626.507 292.268Z" fill="url(#paint30_linear_0_29990)"/>
<path d="M626.089 294.828H638.899C639.275 294.828 639.623 294.522 639.692 294.146C639.748 293.771 639.497 293.465 639.122 293.465H626.311C625.936 293.465 625.588 293.771 625.518 294.146C625.463 294.522 625.713 294.828 626.089 294.828Z" fill="url(#paint31_linear_0_29990)"/>
<path d="M632.779 297.387H638.51C638.885 297.387 639.233 297.081 639.303 296.705C639.358 296.33 639.108 296.024 638.732 296.024H633.002C632.626 296.024 632.278 296.33 632.209 296.705C632.153 297.081 632.404 297.387 632.779 297.387Z" fill="url(#paint32_linear_0_29990)"/>
<path style="mix-blend-mode:screen" opacity="0.3" d="M444.1 372.901H344.077L268.869 143.479H519.294L444.1 372.901Z" fill="url(#paint33_linear_0_29990)"/>
<path style="mix-blend-mode:screen" opacity="0.15" d="M458.579 372.901H329.583L222.453 143.479H565.709L458.579 372.901Z" fill="url(#paint34_linear_0_29990)"/>
<path d="M463.059 372.901H325.105V533.305H463.059V372.901Z" fill="url(#paint35_linear_0_29990)"/>
<path d="M435.241 372.901H352.925V533.305H435.241V372.901Z" fill="url(#paint36_linear_0_29990)"/>
<path d="M468.58 372.901H319.582C319.037 372.901 318.595 373.344 318.595 373.889V391.915C318.595 392.461 319.037 392.903 319.582 392.903H468.58C469.125 392.903 469.567 392.461 469.567 391.915V373.889C469.567 373.344 469.125 372.901 468.58 372.901Z" fill="url(#paint37_linear_0_29990)"/>
<path style="mix-blend-mode:color-burn" d="M463.059 392.917H325.105V400.303H463.059V392.917Z" fill="url(#paint38_linear_0_29990)"/>
<path d="M376.611 392.917V533.374" stroke="url(#paint39_linear_0_29990)" stroke-width="1.48831" stroke-miterlimit="10"/>
<path d="M394.081 392.917V533.374" stroke="url(#paint40_linear_0_29990)" stroke-width="1.48831" stroke-miterlimit="10"/>
<path d="M411.552 392.917V533.374" stroke="url(#paint41_linear_0_29990)" stroke-width="1.48831" stroke-miterlimit="10"/>
<path d="M457.884 246.228C457.23 243.683 456.381 241.207 455.38 238.842C454.587 236.965 453.683 235.156 452.681 233.404C451.791 231.846 450.804 230.344 449.76 228.883C448.773 227.534 447.73 226.241 446.617 224.989C446.186 224.516 445.755 224.043 445.309 223.584L437.033 215.016C437.478 215.475 437.91 215.948 438.341 216.42C439.454 217.658 440.497 218.966 441.484 220.315C442.541 221.762 443.515 223.264 444.405 224.836C445.407 226.588 446.311 228.396 447.104 230.274C448.105 232.639 448.954 235.115 449.607 237.66C451.68 245.686 451.986 254.546 450.178 263.768C449.719 266.077 449.148 268.358 448.467 270.584C447.618 273.324 446.603 276.008 445.435 278.595C444.517 280.64 443.501 282.629 442.388 284.577C441.387 286.329 440.316 288.04 439.189 289.695C438.118 291.267 436.978 292.797 435.795 294.271C434.641 295.718 433.417 297.123 432.165 298.472C430.899 299.835 429.592 301.143 428.229 302.394C426.824 303.688 425.377 304.94 423.889 306.122C422.289 307.388 420.648 308.598 418.951 309.739C417.073 311.004 415.126 312.187 413.151 313.272C410.717 314.607 408.213 315.789 405.654 316.832C396.891 320.379 387.474 322.132 377.974 321.631C363.661 320.88 351.518 315.149 342.839 306.164L351.115 314.732C359.794 323.704 371.951 329.448 386.25 330.199C395.75 330.7 405.167 328.948 413.93 325.401C416.489 324.371 418.993 323.175 421.427 321.84C423.416 320.755 425.349 319.573 427.227 318.307C428.91 317.166 430.565 315.97 432.165 314.69C433.653 313.508 435.1 312.256 436.505 310.963C437.868 309.697 439.175 308.389 440.441 307.04C441.707 305.691 442.917 304.286 444.072 302.84C445.254 301.365 446.394 299.835 447.465 298.263C448.606 296.608 449.677 294.897 450.665 293.145C451.763 291.197 452.779 289.208 453.711 287.164C454.879 284.563 455.894 281.892 456.743 279.152C457.425 276.926 458.009 274.645 458.454 272.336C460.262 263.114 459.956 254.254 457.884 246.228Z" fill="url(#paint42_linear_0_29990)"/>
<path d="M401.912 199.576C435.183 201.315 456.799 230.066 450.178 263.782C443.571 297.485 411.245 323.412 377.974 321.659C344.689 319.92 323.088 291.17 329.694 257.467C336.301 223.751 368.641 197.838 401.912 199.576Z" fill="url(#paint43_linear_0_29990)"/>
<g style="mix-blend-mode:screen">
<path d="M400.535 206.614C429.967 208.158 449.079 233.585 443.237 263.42C437.395 293.242 408.783 316.165 379.365 314.621C349.919 313.077 330.807 287.651 336.649 257.829C342.505 227.993 371.103 205.07 400.535 206.614Z" fill="url(#paint44_linear_0_29990)"/>
</g>
<path d="M356.026 271.112L358.613 273.797L351.213 273.407L348.626 270.723L356.026 271.112Z" fill="white"/>
<path d="M358.849 256.702L361.436 259.373L358.613 273.797L356.025 271.112L358.849 256.702Z" fill="white"/>
<path d="M360.143 244.003L362.73 246.673L371.687 261.709L369.1 259.039L360.143 244.003Z" fill="white"/>
<path d="M374.024 272.058L376.611 274.729L370.394 274.409L367.807 271.738L374.024 272.058Z" fill="white"/>
<path d="M379.338 245.004L381.925 247.675L376.612 274.729L374.024 272.058L379.338 245.004Z" fill="white"/>
<path d="M379.338 245.004L374.025 272.058L367.807 271.738L358.849 256.702L356.026 271.112L348.626 270.723L353.939 243.669L360.143 244.003L369.101 259.039L371.924 244.615L379.338 245.004Z" fill="url(#paint45_linear_0_29990)"/>
<path d="M405.613 246.381L404.459 252.293L391.064 251.583L389.896 257.551L392.483 260.221L393.651 254.268L407.046 254.963L408.2 249.052L405.613 246.381Z" fill="white"/>
<path d="M400.522 264.074L388.741 263.462L386.919 272.74L379.366 272.336L381.953 275.021L389.506 275.41L391.328 266.133L403.11 266.745L404.264 260.847L401.677 258.163L400.522 264.074Z" fill="white"/>
<path d="M405.613 246.381L404.459 252.293L391.064 251.583L389.896 257.551L401.677 258.163L400.522 264.074L388.741 263.462L386.919 272.74L379.366 272.336L384.68 245.282L405.613 246.381Z" fill="url(#paint46_linear_0_29990)"/>
<path d="M413.847 252.947L405.641 252.516L408.228 255.186L416.434 255.617L413.847 252.947Z" fill="white"/>
<path d="M430.747 247.703L429.55 253.767L421.386 253.336L417.282 274.325L409.729 273.936L412.317 276.607L419.869 276.996L423.973 256.021L432.138 256.452L433.334 250.373L430.747 247.703Z" fill="white"/>
<path d="M430.747 247.703L429.551 253.767L421.386 253.336L417.283 274.325L409.73 273.936L413.847 252.947L405.641 252.515L406.837 246.451L430.747 247.703Z" fill="url(#paint47_linear_0_29990)"/>
<path d="M344.745 188.866C348.025 188.866 350.684 186.207 350.684 182.927C350.684 179.646 348.025 176.987 344.745 176.987C341.465 176.987 338.806 179.646 338.806 182.927C338.806 186.207 341.465 188.866 344.745 188.866Z" fill="url(#paint48_linear_0_29990)"/>
<path opacity="0.5" d="M361.228 341.744C361.228 345.945 357.82 349.353 353.619 349.353C349.419 349.353 346.011 345.945 346.011 341.744C346.011 337.544 349.419 334.136 353.619 334.136C357.82 334.136 361.228 337.544 361.228 341.744Z" fill="url(#paint49_linear_0_29990)"/>
<path d="M447.117 323.259C447.117 324.817 445.852 326.096 444.28 326.096C442.708 326.096 441.442 324.83 441.442 323.259C441.442 321.687 442.708 320.421 444.28 320.421C445.852 320.421 447.117 321.687 447.117 323.259Z" fill="url(#paint50_linear_0_29990)"/>
<path d="M401.356 361.607C401.356 362.873 400.326 363.902 399.061 363.902C397.795 363.902 396.766 362.873 396.766 361.607C396.766 360.341 397.795 359.312 399.061 359.312C400.326 359.312 401.356 360.341 401.356 361.607Z" fill="url(#paint51_linear_0_29990)"/>
<path d="M318.595 242.709C318.595 243.975 317.566 245.004 316.3 245.004C315.034 245.004 314.005 243.975 314.005 242.709C314.005 241.443 315.034 240.414 316.3 240.414C317.566 240.414 318.595 241.443 318.595 242.709Z" fill="url(#paint52_linear_0_29990)"/>
<path d="M429.565 185.222C429.565 186.487 428.535 187.517 427.27 187.517C426.004 187.517 424.975 186.487 424.975 185.222C424.975 183.956 426.004 182.927 427.27 182.927C428.535 182.927 429.565 183.956 429.565 185.222Z" fill="url(#paint53_linear_0_29990)"/>
<path opacity="0.2" d="M430.747 349.339C432.667 349.339 434.224 347.782 434.224 345.861C434.224 343.941 432.667 342.384 430.747 342.384C428.826 342.384 427.27 343.941 427.27 345.861C427.27 347.782 428.826 349.339 430.747 349.339Z" fill="url(#paint54_linear_0_29990)"/>
<path opacity="0.3" d="M470.026 231.763C470.026 233.682 468.468 235.24 466.549 235.24C464.629 235.24 463.071 233.682 463.071 231.763C463.071 229.843 464.629 228.285 466.549 228.285C468.468 228.285 470.026 229.843 470.026 231.763Z" fill="url(#paint55_linear_0_29990)"/>
<path d="M629.679 292.783C629.526 292.644 629.303 292.644 629.095 292.672C629.095 292.588 629.081 292.505 629.011 292.449C628.789 292.227 628.051 292.407 627.258 292.616C627.314 292.463 627.314 292.324 627.217 292.24C626.869 291.934 626.174 292.24 626.174 292.24L621.611 294.257L621.444 294.466C621.25 294.591 621.069 294.702 620.93 294.842C620.318 295.384 619.678 296.107 619.135 296.789C617.939 298.263 616.381 299.404 614.629 300.113L596.338 307.513L610.984 308.501C610.984 308.501 617.146 304.564 618.955 304.189C620.763 303.813 623.127 303.938 624.073 302.937C625.019 301.935 627.564 299.501 627.467 298.472C627.398 297.707 626.73 297.888 626.507 297.985C625.77 298.305 624.393 299.654 623.948 299.932C623.559 300.169 622.112 300.447 621.625 299.807L624.115 297.22C624.115 297.22 625.909 295.746 627.634 294.869C629.359 293.993 630.026 293.131 629.679 292.825V292.783Z" fill="#EFCDAF"/>
<path d="M594.127 511.467L594.6 522.024C594.6 522.024 600.595 524.611 605.352 522.024L606.631 509.255" fill="#EFCDAF"/>
<path d="M594.599 522.024C594.599 522.024 592.888 523.735 592.513 526.308C592.137 528.881 592.638 532.206 592.638 532.776C592.638 533.054 599.579 532.915 606.645 532.957C614.017 532.998 621.542 533.235 622.126 532.957C623.266 532.428 605.365 522.01 605.365 522.01C605.365 522.01 600.385 523.248 594.613 522.01L594.599 522.024Z" fill="url(#paint56_linear_0_29990)"/>
<path d="M539.532 507.127L536.486 517.239C536.486 517.239 540.756 521.593 546.112 520.73L551.272 508.323" fill="#EFCDAF"/>
<path d="M533.092 520.605C534.302 518.31 536.486 517.253 536.486 517.253C537.863 518.477 546.376 520.855 546.376 520.855C546.376 520.855 546.362 521.217 547.947 522.831C549.171 524.069 550.604 525.571 552.148 526.92C552.955 527.156 561.412 532.47 560.271 532.984C559.131 533.499 551.522 533.346 548.81 533.235C548.17 533.207 539.351 529.646 536.403 528.561C533.454 527.476 530.769 526.141 530.964 525.599C531.159 525.056 531.896 522.9 533.106 520.605H533.092Z" fill="url(#paint57_linear_0_29990)"/>
<path d="M591.692 367.936C591.692 367.936 587.241 408.009 584.904 428.302C584.139 434.923 583.597 439.416 583.513 439.764C582.136 445.035 580.036 451.489 577.616 458.402C568.505 484.385 554.832 516.126 554.832 516.126C554.832 516.126 544.191 514.388 538.016 510.034L553.58 437.789C553.58 437.789 552.732 379.717 552.301 370.078L591.678 367.949L591.692 367.936Z" fill="url(#paint58_linear_0_29990)"/>
<path style="mix-blend-mode:color-burn" opacity="0.35" d="M584.905 428.302C584.14 434.923 583.598 439.416 583.514 439.764C582.137 445.035 580.037 451.489 577.617 458.402C577.158 451.086 574.278 402.779 574.278 402.779L584.905 428.316V428.302Z" fill="url(#paint59_linear_0_29990)"/>
<path d="M614.003 252.571C612.89 258.635 609.705 271.307 606.423 276.022C605.963 276.676 605.157 276.996 604.378 276.815C600.789 275.994 588.869 272.267 586.727 258.288C584.195 241.777 596.241 238.564 601.874 239.941C607.507 241.318 615.895 242.389 614.017 252.571H614.003Z" fill="#EFCDAF"/>
<path d="M608.467 364.361L610.859 433.824L607.688 518.157C607.688 518.157 596.95 520.007 589.16 518.755C589.16 518.755 582.067 453.645 581.677 444.396C581.176 432.531 567.128 371.594 567.448 363.832" fill="url(#paint60_linear_0_29990)"/>
<path d="M601.707 272.601C601.707 272.601 600.205 277.997 599.273 285.119C599.273 285.119 589.022 284.771 583.097 281.544C583.097 281.544 587.562 270.625 588.201 259.707" fill="#EFCDAF"/>
<path d="M620.762 245.533C620.345 244.517 619.524 243.641 618.495 243.266C617.716 242.987 616.853 243.001 616.116 242.64C614.169 241.68 614.099 238.828 612.458 237.41C611.916 236.937 611.22 236.659 610.525 236.436C608.772 235.894 606.894 235.727 605.072 235.949C604.238 236.047 603.403 236.227 602.582 236.074C602.123 235.991 601.692 235.796 601.261 235.629C599.522 234.976 597.575 234.753 595.795 235.323C595.085 235.56 594.418 235.935 593.833 236.436C588.047 238.467 589.814 242.348 589.814 242.348C585.794 243.252 583.234 245.366 583.095 252.738C582.97 260.11 584.125 269.415 585.098 270.737C586.058 272.03 594.418 274.353 598.437 272.42C599.759 271.78 603.709 260.054 604.154 258.775C604.265 258.469 604.349 258.149 604.585 257.94C604.961 257.606 605.517 257.69 606.018 257.704C607.228 257.759 608.383 257.37 609.426 256.758C610.733 256.869 612.069 256.716 613.307 256.257C614.211 255.923 615.073 255.422 615.713 254.699C616.047 254.31 616.325 253.865 616.492 253.378C618.606 252.696 620.4 250.957 620.929 248.774C621.193 247.703 621.165 246.548 620.762 245.533Z" fill="url(#paint61_linear_0_29990)"/>
<path d="M551.356 373.68C553.275 374.751 594.113 377.116 608.899 372.985C608.899 372.985 608.788 363.624 608.899 359.006C608.955 357.017 611.458 309.614 610.721 297.095C610.721 297.095 606.952 286.51 599.107 284.243C589.885 281.6 580.245 280.292 580.245 280.292C576.17 281.03 568.13 289.055 565.349 296.427C556.864 318.947 549.784 372.79 551.356 373.666V373.68Z" fill="url(#paint62_linear_0_29990)"/>
<path d="M664.077 304.356C663.896 304.384 663.326 304.509 662.575 304.69C662.992 304.147 662.867 303.563 662.505 303.674C661.991 303.841 659.265 304.62 658.569 304.968C657.874 305.315 655.565 306.818 655.565 306.818C655.259 306.943 655.022 307.068 654.869 307.165C653.631 308.028 652.463 310.685 650.919 311.992C649.375 313.286 647.094 314.537 647.094 314.537L621.612 321.45L615.867 309.586L597.91 313.536C597.91 313.536 608.203 332.731 613.28 336.473C615.116 337.836 643.422 322.827 650.029 319.294C651.169 318.682 655.565 317.778 656.747 316.109C657.929 314.44 658.235 313.286 658.235 313.286L660.322 310.754C660.322 310.754 662.672 309.168 662.853 308.459C662.992 307.917 662.561 307.764 662.561 307.764L663.354 307.179C664.286 306.317 663.702 305.788 663.702 305.788C664.606 305.329 664.856 304.231 664.091 304.328L664.077 304.356Z" fill="#EFCDAF"/>
<path d="M591.511 296.706C591.038 301.991 598.813 320.894 598.813 320.894C598.813 320.894 609.76 318.849 617.549 311.714C617.549 311.714 610.831 294.438 607.604 291.156C603.682 287.164 592.248 288.429 591.511 296.719V296.706Z" fill="url(#paint63_linear_0_29990)"/>
<path d="M554.554 222.123H523.355C521.477 222.123 519.961 223.639 519.961 225.517V247.452C519.961 249.33 521.477 250.846 523.355 250.846H544.038L548.6 255.854C549.129 256.438 550.089 256.062 550.089 255.269V250.846H554.554C556.431 250.846 557.948 249.33 557.948 247.452V225.517C557.948 223.639 556.431 222.123 554.554 222.123Z" fill="url(#paint64_linear_0_29990)"/>
<path d="M547.934 236.478C547.934 237.674 548.893 238.634 550.09 238.634C551.286 238.634 552.246 237.674 552.246 236.478C552.246 235.282 551.286 234.322 550.09 234.322C548.893 234.322 547.934 235.282 547.934 236.478Z" fill="#F0F9FF"/>
<path d="M536.793 236.478C536.793 237.674 537.753 238.634 538.949 238.634C540.145 238.634 541.105 237.674 541.105 236.478C541.105 235.282 540.145 234.322 538.949 234.322C537.753 234.322 536.793 235.282 536.793 236.478Z" fill="#F0F9FF"/>
<path d="M525.664 236.478C525.664 237.674 526.624 238.634 527.82 238.634C529.016 238.634 529.976 237.674 529.976 236.478C529.976 235.282 529.016 234.322 527.82 234.322C526.624 234.322 525.664 235.282 525.664 236.478Z" fill="#F0F9FF"/>
<path d="M205.58 521.161L196.998 522.232L193.409 502.37L204.787 501.786C204.787 501.786 205.343 520.396 205.566 521.175L205.58 521.161Z" fill="#EFCDAF"/>
<path d="M142.403 505.249C142.403 505.249 137.034 520.049 136.965 520.883L127.298 517.865L130.998 502.565L142.403 505.249Z" fill="#EFCDAF"/>
<path d="M204.844 439.833C202.855 422.975 198.904 376.573 197.249 360.87L167.539 353.984C153.143 384.543 168.109 392.124 171.572 398.87C172.365 400.414 173.728 415.367 178.889 438.275C182.116 471.769 187.401 512.287 187.401 512.287C187.401 512.287 201.909 512.83 206.819 510.229L204.858 439.833H204.844Z" fill="url(#paint65_linear_0_29990)"/>
<path d="M149.568 359.924C149.568 359.924 142.336 372.526 143.351 383.695C144.255 393.292 146.147 421.584 147.482 436.996C140.082 460.405 129.205 506.278 129.205 506.278C129.205 506.278 132.724 508.295 141.237 510.715C142.892 511.188 148.65 512.009 149.68 511.689C149.68 511.689 169.069 452.449 172.324 440.334C180.03 411.681 185.844 359.506 185.844 359.506L149.568 359.924Z" fill="url(#paint66_linear_0_29990)"/>
<path d="M225.902 523.999C225.902 523.999 227.836 524.75 226.848 526.781C225.429 529.688 214.191 532.706 208.752 533.29H195.538L215.415 526.03C215.415 526.03 219.81 524.055 221.688 523.804C223.579 523.554 225.902 523.985 225.902 523.985V523.999Z" fill="url(#paint67_linear_0_29990)"/>
<path d="M196.86 521.44C196.86 521.44 202.563 521.718 205.54 520.661C205.54 520.661 212.87 523.165 216.945 523.165C221.021 523.165 224.846 523.137 225.889 523.999C223.121 523.554 220.325 524.375 217.029 526.322C204.663 533.624 195.511 533.305 195.511 533.305C195.511 533.305 194.301 525.209 196.846 521.454L196.86 521.44Z" fill="url(#paint68_linear_0_29990)"/>
<path d="M150.986 533.304C151.626 528.381 145.533 526.099 141.764 525.418C139.288 524.124 137.257 519.854 137.257 519.854C131.944 519.882 127.521 516.905 127.521 516.905C127.521 516.905 125.99 518.074 124.627 520.897C123.264 523.721 122.889 527.059 122.889 527.059C122.889 527.059 127.034 529.771 129.69 531.315C132.347 532.859 137.855 533.304 137.855 533.304H150.972H150.986Z" fill="url(#paint69_linear_0_29990)"/>
<path d="M190.21 247.425C190.21 247.425 194.077 253.767 189.543 260.319C189.543 260.319 187.359 263.768 185.926 269.819C184.494 275.869 186.385 287.595 186.385 287.595C186.385 287.595 178.665 288.652 175.272 287.066C171.864 285.481 174.59 266.119 174.59 266.119C174.59 266.119 176.941 255.311 177.316 254.24C177.692 253.183 184.494 245.088 184.494 245.088L190.21 247.439V247.425Z" fill="url(#paint70_linear_0_29990)"/>
<path d="M178.263 282.115C178.179 281.461 178.36 270.445 178.36 270.445L177.373 268.789L172.88 261.209C172.88 261.209 165.661 256.758 164.938 261.209C164.423 264.436 164.785 281.753 164.785 281.753L156.87 284.521C159.666 291.782 169.528 292.477 169.528 292.477C183.534 293.785 189.474 284.841 189.474 284.841C189.474 284.841 178.416 282.727 178.263 282.115Z" fill="#EFCDAF"/>
<path d="M168.722 267.565C168.722 267.565 171.045 274.868 178.277 277.024V274.367L168.722 267.565Z" fill="#E8A77D"/>
<path d="M241.55 295.203C241.439 294.508 241.244 293.896 240.911 293.771C240.716 293.701 240.479 293.659 240.243 293.646C240.827 292.908 241.481 292.102 241.717 291.81C242.176 291.253 244.096 289.208 244.193 288.36C244.304 287.512 243.345 287.678 243.094 287.831C242.315 288.318 241.064 289.584 240.048 290.725C239.408 291.434 238.184 292.769 237.336 293.715C237.684 292.881 238.629 291.531 238.741 290.878C238.852 290.168 238.31 289.973 238.31 289.973C237.044 290.794 234.735 293.604 234.262 294.814C233.789 296.024 233.58 298.486 233.58 298.486C233.163 299.933 232.009 301.087 231.438 301.574L219.671 311.213L225.471 316.86L235.917 305.566C237.447 304.105 237.837 304.328 238.685 303.73C239.923 302.854 240.118 302.436 240.312 302.158C240.577 301.769 240.771 301.337 240.924 300.892C241.064 301.282 241.397 301.407 241.62 301.101C241.94 300.67 242.691 298.611 242.719 298.083C242.733 297.554 242.872 295.76 242.524 295.398C242.315 295.176 241.87 295.176 241.55 295.217V295.203Z" fill="#EFCDAF"/>
<path d="M190.044 245.422C190.044 245.422 190.1 273.95 182.227 275.021C178.625 275.508 171.128 271.46 167.275 265.646C167.275 265.646 161.516 257.467 162.365 248.565C163.213 239.663 186.428 233.084 190.044 245.422Z" fill="#EFCDAF"/>
<path d="M190.253 259.192C190.253 259.192 191.936 253.531 189.92 250.429C189.92 250.429 188.515 248.746 184.856 249.914C182.186 250.763 176.928 252.794 171.879 248.941C171.879 248.941 172.449 255.464 167.748 258.51C167.748 258.51 166.204 261.932 166.093 265.048C165.981 267.913 165.509 275.118 164.785 281.739L155.174 285.036C155.174 285.036 155.535 281.836 155.814 270.612C156.078 259.86 152.642 246.993 162.254 243.182C162.254 243.182 165.216 233.112 178.792 235.254C192.368 237.396 198.349 248.343 190.253 259.206V259.192Z" fill="url(#paint71_linear_0_29990)"/>
<path d="M170.404 257.453C170.404 257.453 168.791 252.919 165.828 255.186C163.658 256.841 164.145 264.686 168.054 265.02" fill="#EFCDAF"/>
<path d="M223.399 308.07C223.399 308.07 215.721 313.884 209.322 318.363C206.805 313.035 205.706 310.879 199.878 297.387C194.898 285.842 191.073 285.147 191.073 285.147L186.622 313.244C186.622 313.244 199.321 335.096 205.901 336.25C209.628 336.904 222.411 324.886 229.741 316.972C229.741 316.972 227.752 311.978 224.553 308.71C224.317 308.473 223.399 308.084 223.399 308.084V308.07Z" fill="url(#paint72_linear_0_29990)"/>
<path d="M147.815 338.336C148.26 344.359 143.962 371.343 143.517 374.668C143.308 376.184 143.99 376.615 143.99 376.615C143.99 376.615 176.218 386.115 198.417 376.657C198.417 376.657 199.28 376.337 199.043 374.306C198.64 370.606 195.413 326.945 195.413 326.945C195.413 326.945 198.862 319.753 199.766 315.233C200.671 310.74 195.566 302.937 194.968 299.487C194.356 296.038 191.087 285.133 191.087 285.133C191.087 285.133 188.653 284.437 181.364 282.782C181.364 282.782 176.58 295.301 161.043 282.782C159.485 283.074 152.947 284.312 150.75 284.785C150.527 284.855 150.346 284.896 150.207 284.924C148.789 285.286 146.062 286.983 144.254 289.556C142.696 294.772 141.681 304.036 144.115 314.357C145.937 322.146 147.272 330.756 147.815 338.336Z" fill="url(#paint73_linear_0_29990)"/>
<path d="M146.667 358.101L177.035 369.697C177.817 369.996 178.693 369.604 178.992 368.822L195.972 324.355C196.271 323.573 195.879 322.697 195.097 322.398L164.729 310.802C163.947 310.503 163.071 310.895 162.772 311.677L145.792 356.144C145.493 356.926 145.885 357.802 146.667 358.101Z" fill="#22256F"/>
<path d="M150.127 362.728L180.976 367.746C182.143 367.936 183.244 367.144 183.434 365.976L190.876 320.231C191.066 319.063 190.273 317.963 189.105 317.773L158.256 312.754C157.089 312.564 155.988 313.357 155.798 314.525L148.356 360.269C148.166 361.437 148.959 362.538 150.127 362.728Z" fill="url(#paint74_linear_0_29990)"/>
<path d="M189.515 341.605C190.127 341.605 190.781 341.202 190.489 340.826C190.197 340.464 186.288 338.74 185.356 339.032C184.424 339.324 182.978 340.172 181.99 340.423C181.016 340.673 178.944 340.423 178.944 340.423L165.911 337.599L161.752 345.138L180.21 346.237C180.21 346.237 182.074 347.016 183.339 347.572C183.395 347.6 183.451 347.6 183.492 347.614C184.188 347.878 185.314 348.268 186.052 348.282C187.178 348.309 187.665 347.6 187.679 347.127C188.291 346.988 188.541 346.612 188.555 346.251C188.555 346.042 188.514 345.861 188.444 345.722C189 345.569 189.223 345.208 189.237 344.86C189.237 344.637 189.181 344.429 189.112 344.29C189.71 344.137 189.96 343.775 189.974 343.413C189.988 342.94 189.71 342.593 189.71 342.593C189.432 342.134 186.928 341.438 186.233 341.243H186.246C187.248 341.466 188.875 341.619 189.487 341.619L189.515 341.605Z" fill="#EFCDAF"/>
<path d="M166.691 337.627L150.111 333.746C152.28 325.303 155.118 312.493 156.898 304.55C159.082 294.716 156.425 285.912 150.764 284.813C150.542 284.883 150.361 284.924 150.222 284.952C149.652 285.105 145.966 286.246 144.116 289.264C141.417 293.687 140.416 300.489 140.416 300.489C140.416 300.489 132.404 341.758 138.065 344.457C142.961 346.793 163.088 349.506 163.088 349.506C163.088 349.506 165.077 347.002 166.663 340.631C167.163 338.601 166.691 337.627 166.691 337.627Z" fill="url(#paint75_linear_0_29990)"/>
<path d="M87.5465 246.214H19.3765C15.4126 246.214 12.1992 249.428 12.1992 253.392V294.577C12.1992 298.541 15.4126 301.755 19.3765 301.755H87.5465C91.5103 301.755 94.7237 298.541 94.7237 294.577V253.392C94.7237 249.428 91.5103 246.214 87.5465 246.214Z" fill="url(#paint76_linear_0_29990)"/>
<path d="M53.6491 255.492H22.3946C20.8122 255.492 19.5293 256.775 19.5293 258.357V289.612C19.5293 291.194 20.8122 292.477 22.3946 292.477H53.6491C55.2315 292.477 56.5144 291.194 56.5144 289.612V258.357C56.5144 256.775 55.2315 255.492 53.6491 255.492Z" fill="url(#paint77_linear_0_29990)"/>
<path d="M25.4957 267.468H22.7973C22.4055 267.468 22.0879 267.786 22.0879 268.177V288.429C22.0879 288.821 22.4055 289.139 22.7973 289.139H25.4957C25.8875 289.139 26.2051 288.821 26.2051 288.429V268.177C26.2051 267.786 25.8875 267.468 25.4957 267.468Z" fill="#EDF7FF"/>
<path d="M32.4371 271.669H29.7387C29.3469 271.669 29.0293 271.986 29.0293 272.378V288.43C29.0293 288.821 29.3469 289.139 29.7387 289.139H32.4371C32.8289 289.139 33.1465 288.821 33.1465 288.43V272.378C33.1465 271.986 32.8289 271.669 32.4371 271.669Z" fill="#EDF7FF"/>
<path d="M39.3775 268.664H36.6791C36.2873 268.664 35.9697 268.982 35.9697 269.374V288.43C35.9697 288.821 36.2873 289.139 36.6791 289.139H39.3775C39.7693 289.139 40.0869 288.821 40.0869 288.43V269.374C40.0869 268.982 39.7693 268.664 39.3775 268.664Z" fill="#EDF7FF"/>
<path d="M46.318 259.248H43.6195C43.2278 259.248 42.9102 259.565 42.9102 259.957V288.429C42.9102 288.821 43.2278 289.139 43.6195 289.139H46.318C46.7097 289.139 47.0273 288.821 47.0273 288.429V259.957C47.0273 259.565 46.7097 259.248 46.318 259.248Z" fill="#EDF7FF"/>
<path d="M53.2447 265.159H50.5463C50.1545 265.159 49.8369 265.477 49.8369 265.869V288.43C49.8369 288.821 50.1545 289.139 50.5463 289.139H53.2447C53.6365 289.139 53.9541 288.821 53.9541 288.43V265.869C53.9541 265.477 53.6365 265.159 53.2447 265.159Z" fill="#EDF7FF"/>
<path d="M66.2236 259.442H85.7663" stroke="white" stroke-width="1.4744" stroke-miterlimit="10" stroke-linecap="round"/>
<path d="M66.2236 263.726H83.3739" stroke="white" stroke-width="1.4744" stroke-miterlimit="10" stroke-linecap="round"/>
<path d="M66.2236 268.01H83.3739" stroke="white" stroke-width="1.4744" stroke-miterlimit="10" stroke-linecap="round"/>
<path d="M66.2236 272.294H85.7663" stroke="white" stroke-width="1.4744" stroke-miterlimit="10" stroke-linecap="round"/>
<path d="M66.2236 276.579H79.5906" stroke="white" stroke-width="1.4744" stroke-miterlimit="10" stroke-linecap="round"/>
<path d="M66.2236 280.876H85.7663" stroke="white" stroke-width="1.4744" stroke-miterlimit="10" stroke-linecap="round"/>
<path d="M66.2236 285.161H85.7663" stroke="white" stroke-width="1.4744" stroke-miterlimit="10" stroke-linecap="round"/>
<path d="M66.2236 289.445H79.9244" stroke="white" stroke-width="1.4744" stroke-miterlimit="10" stroke-linecap="round"/>
<path opacity="0.3" d="M524.121 411.083C524.079 410.874 524.023 410.637 523.968 410.429C523.787 409.539 523.537 408.69 523.245 407.842C522.591 405.922 521.687 404.142 520.56 402.487L523.175 399.885L516.916 393.626L516.791 393.751L514.315 396.241C511.755 394.516 508.848 393.292 505.719 392.68V388.994H496.872V392.68C493.729 393.292 490.822 394.516 488.276 396.241L485.675 393.626L479.416 399.885L482.031 402.487C480.306 405.046 479.082 407.953 478.47 411.083H474.784V419.929H478.484C479.082 423.072 480.306 425.98 482.031 428.525L479.416 431.126L485.675 437.385L488.276 434.77C490.836 436.495 493.743 437.719 496.872 438.317V442.017H505.719V438.317C508.862 437.719 511.769 436.495 514.315 434.77L516.791 437.26L516.916 437.385L520.685 433.616L523.175 431.126L520.685 428.65L520.56 428.525C520.56 428.525 520.63 428.4 520.685 428.344C522.354 425.84 523.537 422.989 524.107 419.929H527.807V411.083H524.107H524.121ZM501.309 430.264C493.159 430.264 486.538 423.657 486.538 415.492C486.538 407.327 493.145 400.72 501.309 400.72C509.474 400.72 516.081 407.327 516.081 415.492C516.081 423.657 509.474 430.264 501.309 430.264Z" fill="#ACE2F9"/>
<path opacity="0.1" d="M724.624 223.959C724.597 223.834 724.569 223.709 724.541 223.598C724.444 223.097 724.304 222.624 724.138 222.151C723.776 221.08 723.275 220.093 722.649 219.175L724.11 217.728L720.619 214.237L720.549 214.306L719.172 215.697C717.753 214.738 716.126 214.056 714.387 213.708V211.65H709.463V213.708C707.711 214.056 706.097 214.738 704.678 215.697L703.232 214.237L699.74 217.728L701.201 219.175C700.241 220.593 699.56 222.221 699.212 223.959H697.153V228.883H699.212C699.546 230.636 700.227 232.249 701.187 233.668L699.727 235.115L703.218 238.606L704.664 237.146C706.083 238.105 707.711 238.787 709.449 239.121V241.179H714.373V239.121C716.126 238.787 717.739 238.105 719.158 237.146L720.535 238.537L720.605 238.606L722.705 236.506L724.096 235.115L722.705 233.738L722.635 233.668C722.635 233.668 722.677 233.599 722.705 233.571C723.637 232.18 724.291 230.594 724.611 228.883H726.669V223.959H724.611H724.624ZM711.925 234.642C707.391 234.642 703.705 230.956 703.705 226.421C703.705 221.887 707.391 218.201 711.925 218.201C716.46 218.201 720.146 221.887 720.146 226.421C720.146 230.956 716.46 234.642 711.925 234.642Z" fill="#ACE2F9"/>
<path opacity="0.2" d="M158.08 203.693C158.052 203.554 158.024 203.401 157.983 203.248C157.857 202.65 157.69 202.08 157.496 201.51C157.051 200.23 156.453 199.02 155.701 197.907L157.454 196.154L153.253 191.954L153.17 192.037L151.501 193.72C149.776 192.552 147.829 191.731 145.714 191.328V188.852H139.775V191.328C137.661 191.745 135.714 192.566 133.989 193.72L132.236 191.968L128.036 196.168L129.788 197.921C128.62 199.632 127.799 201.593 127.396 203.707H124.92V209.647H127.41C127.813 211.761 128.634 213.708 129.802 215.433L128.05 217.185L132.25 221.386L134.003 219.634C135.728 220.802 137.675 221.623 139.789 222.026V224.516H145.728V222.026C147.843 221.623 149.79 220.802 151.515 219.634L153.184 221.317L153.267 221.4L155.799 218.869L157.482 217.185L155.799 215.516L155.715 215.433C155.715 215.433 155.771 215.349 155.799 215.308C156.925 213.625 157.718 211.705 158.108 209.647H160.598V203.707H158.108L158.08 203.693ZM142.738 216.587C137.258 216.587 132.807 212.15 132.807 206.656C132.807 201.162 137.244 196.725 142.738 196.725C148.232 196.725 152.669 201.162 152.669 206.656C152.669 212.15 148.232 216.587 142.738 216.587Z" fill="#ACE2F9"/>
<path d="M290.679 348.101H238.296C234.186 348.101 230.854 351.432 230.854 355.542V403.446C230.854 407.556 234.186 410.888 238.296 410.888H290.679C294.789 410.888 298.12 407.556 298.12 403.446V355.542C298.12 351.432 294.789 348.101 290.679 348.101Z" fill="url(#paint78_linear_0_29990)"/>
<path d="M288.551 352.482H240.439C237.742 352.482 235.557 354.668 235.557 357.364V401.61C235.557 404.306 237.742 406.492 240.439 406.492H288.551C291.248 406.492 293.434 404.306 293.434 401.61V357.364C293.434 354.668 291.248 352.482 288.551 352.482Z" fill="#EDF7FF"/>
<path d="M276.714 406.506H240.439C238.38 406.506 236.613 405.213 235.918 403.39L251.789 379.744C253.444 377.296 257.074 377.296 258.715 379.744L263.779 387.269L276.714 406.52V406.506Z" fill="url(#paint79_linear_0_29990)"/>
<path d="M293.433 380.051V401.624C293.433 404.309 291.236 406.506 288.551 406.506H250.843L263.765 387.256L277.924 366.197C279.413 363.985 282.64 363.985 284.128 366.197L293.433 380.037V380.051Z" fill="url(#paint80_linear_0_29990)"/>
<path d="M261.025 363.582C261.025 366.99 258.257 369.758 254.849 369.758C251.441 369.758 248.659 366.99 248.659 363.582C248.659 360.174 251.427 357.406 254.849 357.406C258.271 357.406 261.025 360.174 261.025 363.582Z" fill="url(#paint81_linear_0_29990)"/>
<path d="M292.431 104.617C292.431 112.642 286.714 119.152 279.662 119.152C272.61 119.152 266.894 112.642 266.894 104.617C266.894 96.5909 272.61 90.0813 279.662 90.0813C286.714 90.0813 292.431 96.5909 292.431 104.617Z" fill="url(#paint82_linear_0_29990)"/>
<path d="M283.669 122.477C281.012 122.157 278.314 122.157 275.643 122.477C264.321 123.826 254.946 131.921 251.941 142.937H307.356C304.366 131.935 294.991 123.84 283.655 122.477H283.669Z" fill="url(#paint83_linear_0_29990)"/>
<path d="M312.238 78.0359C312.238 78.8844 311.543 79.5798 310.694 79.5798C309.846 79.5798 309.15 78.8844 309.15 78.0359C309.15 77.1874 309.846 76.4919 310.694 76.4919C311.543 76.4919 312.238 77.1874 312.238 78.0359Z" fill="url(#paint84_linear_0_29990)"/>
<path d="M319.291 78.0359C319.291 78.8844 318.596 79.5798 317.747 79.5798C316.899 79.5798 316.203 78.8844 316.203 78.0359C316.203 77.1874 316.899 76.4919 317.747 76.4919C318.596 76.4919 319.291 77.1874 319.291 78.0359Z" fill="url(#paint85_linear_0_29990)"/>
<path d="M326.343 78.0359C326.343 78.8844 325.647 79.5798 324.799 79.5798C323.95 79.5798 323.255 78.8844 323.255 78.0359C323.255 77.1874 323.95 76.4919 324.799 76.4919C325.647 76.4919 326.343 77.1874 326.343 78.0359Z" fill="url(#paint86_linear_0_29990)"/>
<path d="M327.247 73.3484H232.079C230.173 73.3484 228.615 74.9062 228.615 76.8118V140.016C228.615 141.922 230.173 143.48 232.079 143.48H327.247C329.152 143.48 330.71 141.922 330.71 140.016V76.8118C330.71 74.9062 329.152 73.3484 327.247 73.3484ZM232.079 74.4472H327.247C328.554 74.4472 329.611 75.5043 329.611 76.8118V81.2628H229.7V76.8118C229.7 75.5043 230.757 74.4472 232.065 74.4472H232.079ZM327.247 142.381H232.079C230.771 142.381 229.714 141.324 229.714 140.016V82.3617H329.625V140.016C329.625 141.324 328.568 142.381 327.261 142.381H327.247Z" fill="url(#paint87_linear_0_29990)"/>
<path d="M80.6056 333.454C80.6334 340.506 74.9445 346.265 67.8785 346.292C60.8265 346.32 55.068 340.631 55.0401 333.565C55.0123 326.513 60.7013 320.755 67.7533 320.727C74.8054 320.699 80.5639 326.388 80.5917 333.454H80.6056Z" fill="#98E7F4"/>
<path d="M62.2041 334.136L67.2532 338.99L73.9297 329.893" stroke="white" stroke-width="2.19769" stroke-linecap="round" stroke-linejoin="round"/>
<path d="M783.948 325.832C783.879 331.145 779.525 335.387 774.212 335.318C768.898 335.248 764.656 330.895 764.725 325.581C764.795 320.268 769.149 316.026 774.462 316.095C779.775 316.165 784.018 320.518 783.948 325.832Z" fill="#BDF3FF"/>
<path d="M770.094 326.11L773.835 329.838L778.968 323.078" stroke="white" stroke-width="2.04468" stroke-linecap="round" stroke-linejoin="round"/>
<path opacity="0.5" d="M125.087 306.498C125.087 308.445 123.502 310.031 121.554 310.031C119.607 310.031 118.021 308.445 118.021 306.498C118.021 304.55 119.607 302.965 121.554 302.965C123.502 302.965 125.087 304.55 125.087 306.498Z" fill="#BDF3FF"/>
<path d="M118.216 389.912C118.216 391.108 117.243 392.068 116.06 392.068C114.878 392.068 113.904 391.095 113.904 389.912C113.904 388.73 114.878 387.756 116.06 387.756C117.243 387.756 118.216 388.73 118.216 389.912Z" fill="#BDF3FF"/>
<path opacity="0.3" d="M246.377 473.633C246.377 474.829 245.404 475.789 244.221 475.789C243.039 475.789 242.065 474.815 242.065 473.633C242.065 472.451 243.039 471.477 244.221 471.477C245.404 471.477 246.377 472.451 246.377 473.633Z" fill="#BDF3FF"/>
<path opacity="0.1" d="M72.3158 444.702C72.3158 447.191 70.2989 449.208 67.8231 449.208C65.3472 449.208 63.3164 447.191 63.3164 444.702C63.3164 442.212 65.3333 440.195 67.8231 440.195C70.3128 440.195 72.3158 442.212 72.3158 444.702Z" fill="#BDF3FF"/>
<path opacity="0.1" d="M810.446 486.416C810.446 488.906 808.429 490.922 805.953 490.922C803.477 490.922 801.446 488.906 801.446 486.416C801.446 483.926 803.463 481.909 805.953 481.909C808.443 481.909 810.446 483.926 810.446 486.416Z" fill="#BDF3FF"/>
<path opacity="0.1" d="M440.025 5.48419C440.025 7.97397 438.008 9.99083 435.532 9.99083C433.056 9.99083 431.025 7.97397 431.025 5.48419C431.025 2.9944 433.042 0.977539 435.532 0.977539C438.022 0.977539 440.025 2.9944 440.025 5.48419Z" fill="#BDF3FF"/>
<path opacity="0.1" d="M176.385 141.949C176.385 145.26 173.7 147.93 170.404 147.93C167.107 147.93 164.423 145.246 164.423 141.949C164.423 138.653 167.107 135.968 170.404 135.968C173.7 135.968 176.385 138.653 176.385 141.949Z" fill="#BDF3FF"/>
<path opacity="0.1" d="M709.686 100.485C709.686 103.796 707.001 106.466 703.705 106.466C700.408 106.466 697.724 103.782 697.724 100.485C697.724 97.1889 700.408 94.5044 703.705 94.5044C707.001 94.5044 709.686 97.1889 709.686 100.485Z" fill="#BDF3FF"/>
<path d="M671.116 182.801C671.116 184.749 669.53 186.334 667.583 186.334C665.635 186.334 664.05 184.749 664.05 182.801C664.05 180.854 665.635 179.268 667.583 179.268C669.53 179.268 671.116 180.854 671.116 182.801Z" fill="#BDF3FF"/>
<path d="M630.653 453.103C630.653 455.05 629.067 456.636 627.12 456.636C625.173 456.636 623.587 455.05 623.587 453.103C623.587 451.155 625.173 449.57 627.12 449.57C629.067 449.57 630.653 451.155 630.653 453.103Z" fill="#98E7F4"/>
<path d="M408.241 99.3448H405.39V96.4934C405.39 95.8674 404.889 95.3667 404.263 95.3667C403.637 95.3667 403.136 95.8674 403.136 96.4934V99.3448H400.285C399.659 99.3448 399.158 99.8455 399.158 100.471C399.158 101.097 399.659 101.598 400.285 101.598H403.136V104.45C403.136 105.075 403.637 105.576 404.263 105.576C404.889 105.576 405.39 105.075 405.39 104.45V101.598H408.241C408.867 101.598 409.368 101.097 409.368 100.471C409.368 99.8455 408.867 99.3448 408.241 99.3448Z" fill="#BDF3FF"/>
<path d="M636.371 247.508C635.745 247.508 635.244 247.007 635.244 246.381V238.425C635.244 237.799 635.745 237.298 636.371 237.298C636.997 237.298 637.497 237.799 637.497 238.425V246.381C637.497 247.007 636.997 247.508 636.371 247.508Z" fill="#BDF3FF"/>
<path d="M640.348 243.53H632.392C631.766 243.53 631.266 243.029 631.266 242.403C631.266 241.777 631.766 241.277 632.392 241.277H640.348C640.974 241.277 641.475 241.777 641.475 242.403C641.475 243.029 640.974 243.53 640.348 243.53Z" fill="#BDF3FF"/>
<path d="M258.826 320.616H255.975V317.764C255.975 317.138 255.474 316.638 254.848 316.638C254.222 316.638 253.721 317.138 253.721 317.764V320.616H250.87C250.244 320.616 249.743 321.117 249.743 321.742C249.743 322.368 250.244 322.869 250.87 322.869H253.721V325.721C253.721 326.346 254.222 326.847 254.848 326.847C255.474 326.847 255.975 326.346 255.975 325.721V322.869H258.826C259.452 322.869 259.953 322.368 259.953 321.742C259.953 321.117 259.452 320.616 258.826 320.616Z" fill="#BDF3FF"/>
<path d="M691.257 153.856H688.405V151.004C688.405 150.378 687.904 149.878 687.279 149.878C686.653 149.878 686.152 150.378 686.152 151.004V153.856H683.3C682.675 153.856 682.174 154.357 682.174 154.982C682.174 155.608 682.675 156.109 683.3 156.109H686.152V158.961C686.152 159.586 686.653 160.087 687.279 160.087C687.904 160.087 688.405 159.586 688.405 158.961V156.109H691.257C691.883 156.109 692.383 155.608 692.383 154.982C692.383 154.357 691.883 153.856 691.257 153.856Z" fill="#98E7F4"/>
<path opacity="0.5" d="M531.799 335.137H528.947V332.286C528.947 331.66 528.447 331.159 527.821 331.159C527.195 331.159 526.694 331.66 526.694 332.286V335.137H523.842C523.217 335.137 522.716 335.638 522.716 336.264C522.716 336.89 523.217 337.391 523.842 337.391H526.694V340.242C526.694 340.868 527.195 341.369 527.821 341.369C528.447 341.369 528.947 340.868 528.947 340.242V337.391H531.799C532.425 337.391 532.925 336.89 532.925 336.264C532.925 335.638 532.425 335.137 531.799 335.137Z" fill="#BDF3FF"/>
<path d="M781.667 410.888H717.294C714.329 410.888 711.925 413.291 711.925 416.257V463.813C711.925 466.778 714.329 469.182 717.294 469.182H781.667C784.632 469.182 787.036 466.778 787.036 463.813V416.257C787.036 413.291 784.632 410.888 781.667 410.888Z" fill="url(#paint88_linear_0_29990)"/>
<path d="M771.832 417.55H727.1C725.041 417.55 723.372 419.219 723.372 421.278V454.341C723.372 456.399 725.041 458.068 727.1 458.068H771.832C773.891 458.068 775.56 456.399 775.56 454.341V421.278C775.56 419.219 773.891 417.55 771.832 417.55Z" fill="url(#paint89_linear_0_29990)"/>
<path d="M774.42 463.896H724.527C723.887 463.896 723.372 463.382 723.372 462.742C723.372 462.102 723.887 461.587 724.527 461.587H774.42C775.059 461.587 775.574 462.102 775.574 462.742C775.574 463.382 775.059 463.896 774.42 463.896Z" fill="url(#paint90_linear_0_29990)"/>
<path d="M775.574 462.742C775.574 463.382 775.059 463.896 774.42 463.896H740.87V461.601H774.42C775.059 461.601 775.574 462.116 775.574 462.756V462.742Z" fill="url(#paint91_linear_0_29990)"/>
<path d="M740.871 465.816C742.569 465.816 743.945 464.44 743.945 462.742C743.945 461.044 742.569 459.668 740.871 459.668C739.173 459.668 737.797 461.044 737.797 462.742C737.797 464.44 739.173 465.816 740.871 465.816Z" fill="url(#paint92_linear_0_29990)"/>
<path d="M742.609 462.742C742.609 463.702 741.83 464.481 740.871 464.481C739.911 464.481 739.132 463.702 739.132 462.742C739.132 461.782 739.911 461.003 740.871 461.003C741.83 461.003 742.609 461.782 742.609 462.742Z" fill="url(#paint93_linear_0_29990)"/>
<path d="M744.807 430.069C744.543 430.124 744.348 430.347 744.348 430.625V442.712C743.486 442.337 742.331 442.379 741.233 442.907C739.55 443.742 738.701 445.439 739.327 446.705C739.953 447.97 741.831 448.318 743.514 447.483C745.002 446.746 745.837 445.327 745.572 444.131H745.628V432.934L756.338 430.931V440.237C755.476 439.861 754.321 439.903 753.222 440.431C751.539 441.266 750.691 442.963 751.317 444.229C751.943 445.494 753.82 445.842 755.504 445.008C756.992 444.27 757.826 442.852 757.562 441.655H757.618V428.358C757.618 428.01 757.298 427.746 756.95 427.802L744.821 430.069H744.807Z" fill="url(#paint94_linear_0_29990)"/>
<path d="M508.43 110.264H441.095C438.022 110.264 435.531 112.755 435.531 115.828V164.622C435.531 167.695 438.022 170.186 441.095 170.186H508.43C511.503 170.186 513.994 167.695 513.994 164.622V115.828C513.994 112.755 511.503 110.264 508.43 110.264Z" fill="url(#paint95_linear_0_29990)"/>
<path d="M506.19 113.616H443.306C441.432 113.616 439.912 115.136 439.912 117.01V163.44C439.912 165.314 441.432 166.834 443.306 166.834H506.19C508.065 166.834 509.584 165.314 509.584 163.44V117.01C509.584 115.136 508.065 113.616 506.19 113.616Z" stroke="#EDF7FF" stroke-width="0.709379" stroke-miterlimit="10"/>
<path d="M456.188 128.986C456.188 128.986 456.452 127.136 457.092 126.788C457.746 126.441 462.266 125.147 463.588 125.175C464.923 125.203 465.66 127.581 465.66 127.581L456.174 128.972L456.188 128.986Z" fill="url(#paint96_linear_0_29990)"/>
<path d="M492.31 128.986C492.31 128.986 492.046 127.136 491.406 126.788C490.766 126.441 486.232 125.147 484.91 125.175C483.575 125.203 482.838 127.581 482.838 127.581L492.324 128.972L492.31 128.986Z" fill="url(#paint97_linear_0_29990)"/>
<path d="M495.176 130.878C492.185 126.385 477.149 126.037 474.256 126.009C471.363 126.037 456.327 126.385 453.336 130.878C451.222 134.049 446.145 152.479 446.562 153.912C446.966 155.344 453.114 156.374 455.576 153.912C456.563 152.924 457.746 151.199 458.803 149.461C460.611 146.54 464.06 145.051 467.413 145.844C469.763 146.4 472.364 146.887 474.27 146.887C476.175 146.887 478.777 146.4 481.127 145.844C484.479 145.051 487.929 146.54 489.737 149.461C490.794 151.199 491.977 152.924 492.964 153.912C495.426 156.374 501.574 155.344 501.977 153.912C502.395 152.479 497.318 134.049 495.204 130.878H495.176Z" fill="#EDF7FF"/>
<path d="M470.069 141.95C470.069 143.577 468.748 144.884 467.134 144.884C465.521 144.884 464.199 143.563 464.199 141.95C464.199 140.336 465.521 139.015 467.134 139.015C468.748 139.015 470.069 140.336 470.069 141.95Z" fill="url(#paint98_linear_0_29990)"/>
<path d="M484.298 141.95C484.298 143.577 482.977 144.884 481.364 144.884C479.75 144.884 478.429 143.563 478.429 141.95C478.429 140.336 479.75 139.015 481.364 139.015C482.977 139.015 484.298 140.336 484.298 141.95Z" fill="url(#paint99_linear_0_29990)"/>
<path d="M461.029 135.217H460.027V134.216C460.027 133.201 459.207 132.38 458.191 132.38C457.176 132.38 456.355 133.201 456.355 134.216V135.217H455.354C454.338 135.217 453.518 136.038 453.518 137.053C453.518 138.069 454.338 138.889 455.354 138.889H456.355V139.891C456.355 140.906 457.176 141.727 458.191 141.727C459.207 141.727 460.027 140.906 460.027 139.891V138.889H461.029C462.044 138.889 462.865 138.069 462.865 137.053C462.865 136.038 462.044 135.217 461.029 135.217Z" fill="url(#paint100_linear_0_29990)"/>
<path d="M491.323 134.216C491.323 135.231 490.502 136.038 489.501 136.038C488.499 136.038 487.679 135.217 487.679 134.216C487.679 133.214 488.499 132.394 489.501 132.394C490.502 132.394 491.323 133.214 491.323 134.216Z" fill="url(#paint101_linear_0_29990)"/>
<path d="M491.323 139.891C491.323 140.906 490.502 141.713 489.501 141.713C488.499 141.713 487.679 140.892 487.679 139.891C487.679 138.89 488.499 138.069 489.501 138.069C490.502 138.069 491.323 138.89 491.323 139.891Z" fill="url(#paint102_linear_0_29990)"/>
<path d="M492.339 138.876C491.323 138.876 490.517 138.055 490.517 137.054C490.517 136.052 491.337 135.231 492.339 135.231C493.34 135.231 494.161 136.052 494.161 137.054C494.161 138.055 493.34 138.876 492.339 138.876Z" fill="url(#paint103_linear_0_29990)"/>
<path d="M486.663 138.876C485.648 138.876 484.841 138.055 484.841 137.054C484.841 136.052 485.661 135.231 486.663 135.231C487.664 135.231 488.485 136.052 488.485 137.054C488.485 138.055 487.664 138.876 486.663 138.876Z" fill="url(#paint104_linear_0_29990)"/>
<path d="M0 533.304H792.113" stroke="url(#paint105_linear_0_29990)" stroke-width="1.39094" stroke-miterlimit="10"/>
</g>
<defs>
<linearGradient id="paint0_linear_0_29990" x1="392.216" y1="240.219" x2="392.216" y2="515.639" gradientUnits="userSpaceOnUse">
<stop stop-color="#2E48CD"/>
<stop offset="1" stop-color="#1F237E"/>
</linearGradient>
<linearGradient id="paint1_linear_0_29990" x1="508.638" y1="516.85" x2="562.551" y2="481.478" gradientUnits="userSpaceOnUse">
<stop stop-color="#2E3E9D"/>
<stop offset="1" stop-color="#79D3FD"/>
</linearGradient>
<linearGradient id="paint2_linear_0_29990" x1="328.163" y1="481.144" x2="301.428" y2="422.475" gradientUnits="userSpaceOnUse">
<stop stop-color="#2E3E9D"/>
<stop offset="1" stop-color="#79D3FD"/>
</linearGradient>
<linearGradient id="paint3_linear_0_29990" x1="391.062" y1="564.893" x2="391.062" y2="432.225" gradientUnits="userSpaceOnUse">
<stop stop-color="#002AA2"/>
<stop offset="1" stop-color="#79D3FD"/>
</linearGradient>
<linearGradient id="paint4_linear_0_29990" x1="573.263" y1="87.0769" x2="651.114" y2="164.928" gradientUnits="userSpaceOnUse">
<stop stop-color="#F9DD68"/>
<stop offset="1" stop-color="#F9A942"/>
</linearGradient>
<linearGradient id="paint5_linear_0_29990" x1="599.078" y1="135.217" x2="625.228" y2="109.081" gradientUnits="userSpaceOnUse">
<stop stop-color="#10274A"/>
<stop offset="1" stop-color="#00347F"/>
</linearGradient>
<linearGradient id="paint6_linear_0_29990" x1="589.342" y1="143.382" x2="636.175" y2="190.215" gradientUnits="userSpaceOnUse">
<stop stop-color="#10274A"/>
<stop offset="1" stop-color="#00347F"/>
</linearGradient>
<linearGradient id="paint7_linear_0_29990" x1="610.596" y1="151.06" x2="642.601" y2="183.066" gradientUnits="userSpaceOnUse">
<stop stop-color="white"/>
<stop offset="1" stop-color="#79D3FD"/>
</linearGradient>
<linearGradient id="paint8_linear_0_29990" x1="595.753" y1="163.676" x2="603.418" y2="171.34" gradientUnits="userSpaceOnUse">
<stop stop-color="#10274A"/>
<stop offset="1" stop-color="#00347F"/>
</linearGradient>
<linearGradient id="paint9_linear_0_29990" x1="597.465" y1="165.387" x2="601.818" y2="169.74" gradientUnits="userSpaceOnUse">
<stop stop-color="white"/>
<stop offset="1" stop-color="#79D3FD"/>
</linearGradient>
<linearGradient id="paint10_linear_0_29990" x1="190.698" y1="178.684" x2="230.395" y2="218.382" gradientUnits="userSpaceOnUse">
<stop stop-color="#F9DD68"/>
<stop offset="1" stop-color="#F9A942"/>
</linearGradient>
<linearGradient id="paint11_linear_0_29990" x1="190.364" y1="179.004" x2="230.076" y2="218.701" gradientUnits="userSpaceOnUse">
<stop stop-color="#F9DD68"/>
<stop offset="1" stop-color="#F9A942"/>
</linearGradient>
<linearGradient id="paint12_linear_0_29990" x1="646.619" y1="436.439" x2="694.537" y2="436.439" gradientUnits="userSpaceOnUse">
<stop stop-color="#00006C"/>
<stop offset="1" stop-color="#5793FB"/>
</linearGradient>
<linearGradient id="paint13_linear_0_29990" x1="664.062" y1="533.304" x2="664.062" y2="346.932" gradientUnits="userSpaceOnUse">
<stop stop-color="#5793FB"/>
<stop offset="0.99" stop-color="#00009A"/>
</linearGradient>
<linearGradient id="paint14_linear_0_29990" x1="674.925" y1="391.289" x2="674.925" y2="269.707" gradientUnits="userSpaceOnUse">
<stop stop-color="#00006C"/>
<stop offset="1" stop-color="#5793FB"/>
</linearGradient>
<linearGradient id="paint15_linear_0_29990" x1="671.851" y1="387.826" x2="671.851" y2="268.956" gradientUnits="userSpaceOnUse">
<stop stop-color="#A6E5D4"/>
<stop offset="1" stop-color="#79D3FD"/>
</linearGradient>
<linearGradient id="paint16_linear_0_29990" x1="600.412" y1="326.04" x2="743.304" y2="326.04" gradientUnits="userSpaceOnUse">
<stop stop-color="#2C89FB"/>
<stop offset="1" stop-color="#0059FF"/>
</linearGradient>
<linearGradient id="paint17_linear_0_29990" x1="642.503" y1="310.74" x2="692.66" y2="310.74" gradientUnits="userSpaceOnUse">
<stop stop-color="#A6E5D4"/>
<stop offset="1" stop-color="#79D3FD"/>
</linearGradient>
<linearGradient id="paint18_linear_0_29990" x1="695.066" y1="345.18" x2="722.593" y2="345.18" gradientUnits="userSpaceOnUse">
<stop stop-color="#A6E5D4"/>
<stop offset="1" stop-color="#79D3FD"/>
</linearGradient>
<linearGradient id="paint19_linear_0_29990" x1="648.971" y1="356.363" x2="705.665" y2="356.363" gradientUnits="userSpaceOnUse">
<stop stop-color="#A6E5D4"/>
<stop offset="1" stop-color="#79D3FD"/>
</linearGradient>
<linearGradient id="paint20_linear_0_29990" x1="654.366" y1="356.808" x2="700.309" y2="356.808" gradientUnits="userSpaceOnUse">
<stop stop-color="#A6E5D4"/>
<stop offset="1" stop-color="#79D3FD"/>
</linearGradient>
<linearGradient id="paint21_linear_0_29990" x1="701.701" y1="293.465" x2="729.255" y2="293.465" gradientUnits="userSpaceOnUse">
<stop stop-color="#A6E5D4"/>
<stop offset="1" stop-color="#79D3FD"/>
</linearGradient>
<linearGradient id="paint22_linear_0_29990" x1="816.76" y1="305.635" x2="802.558" y2="305.635" gradientUnits="userSpaceOnUse">
<stop stop-color="white"/>
<stop offset="1" stop-color="#E2F5FF"/>
</linearGradient>
<linearGradient id="paint23_linear_0_29990" x1="817.163" y1="308.181" x2="802.962" y2="308.181" gradientUnits="userSpaceOnUse">
<stop stop-color="white"/>
<stop offset="1" stop-color="#E2F5FF"/>
</linearGradient>
<linearGradient id="paint24_linear_0_29990" x1="817.566" y1="310.74" x2="803.365" y2="310.74" gradientUnits="userSpaceOnUse">
<stop stop-color="white"/>
<stop offset="1" stop-color="#E2F5FF"/>
</linearGradient>
<linearGradient id="paint25_linear_0_29990" x1="817.97" y1="313.299" x2="810.862" y2="313.299" gradientUnits="userSpaceOnUse">
<stop stop-color="white"/>
<stop offset="1" stop-color="#E2F5FF"/>
</linearGradient>
<linearGradient id="paint26_linear_0_29990" x1="744.625" y1="349.506" x2="730.437" y2="349.506" gradientUnits="userSpaceOnUse">
<stop stop-color="white"/>
<stop offset="1" stop-color="#E2F5FF"/>
</linearGradient>
<linearGradient id="paint27_linear_0_29990" x1="745.028" y1="352.065" x2="730.841" y2="352.065" gradientUnits="userSpaceOnUse">
<stop stop-color="white"/>
<stop offset="1" stop-color="#E2F5FF"/>
</linearGradient>
<linearGradient id="paint28_linear_0_29990" x1="745.432" y1="354.61" x2="731.244" y2="354.61" gradientUnits="userSpaceOnUse">
<stop stop-color="white"/>
<stop offset="1" stop-color="#E2F5FF"/>
</linearGradient>
<linearGradient id="paint29_linear_0_29990" x1="745.85" y1="357.17" x2="738.742" y2="357.17" gradientUnits="userSpaceOnUse">
<stop stop-color="white"/>
<stop offset="1" stop-color="#E2F5FF"/>
</linearGradient>
<linearGradient id="paint30_linear_0_29990" x1="732.177" y1="291.587" x2="717.989" y2="291.587" gradientUnits="userSpaceOnUse">
<stop stop-color="white"/>
<stop offset="1" stop-color="#E2F5FF"/>
</linearGradient>
<linearGradient id="paint31_linear_0_29990" x1="732.593" y1="294.146" x2="718.392" y2="294.146" gradientUnits="userSpaceOnUse">
<stop stop-color="white"/>
<stop offset="1" stop-color="#E2F5FF"/>
</linearGradient>
<linearGradient id="paint32_linear_0_29990" x1="732.997" y1="296.705" x2="725.889" y2="296.705" gradientUnits="userSpaceOnUse">
<stop stop-color="white"/>
<stop offset="1" stop-color="#E2F5FF"/>
</linearGradient>
<linearGradient id="paint33_linear_0_29990" x1="394.082" y1="372.901" x2="394.082" y2="148.195" gradientUnits="userSpaceOnUse">
<stop stop-color="#8AFFFF"/>
<stop offset="1" stop-color="#79D3FD" stop-opacity="0"/>
</linearGradient>
<linearGradient id="paint34_linear_0_29990" x1="394.081" y1="372.901" x2="394.081" y2="148.195" gradientUnits="userSpaceOnUse">
<stop stop-color="#8AFFFF"/>
<stop offset="1" stop-color="#79D3FD" stop-opacity="0"/>
</linearGradient>
<linearGradient id="paint35_linear_0_29990" x1="394.082" y1="564.156" x2="394.082" y2="389.787" gradientUnits="userSpaceOnUse">
<stop stop-color="#8AFFFF"/>
<stop offset="1" stop-color="#423BFD"/>
</linearGradient>
<linearGradient id="paint36_linear_0_29990" x1="394.083" y1="532.985" x2="394.083" y2="397.187" gradientUnits="userSpaceOnUse">
<stop stop-color="#8AFFFF"/>
<stop offset="1" stop-color="#79D3FD"/>
</linearGradient>
<linearGradient id="paint37_linear_0_29990" x1="318.595" y1="382.902" x2="469.567" y2="382.902" gradientUnits="userSpaceOnUse">
<stop stop-color="#8AFFFF"/>
<stop offset="1" stop-color="#79D3FD"/>
</linearGradient>
<linearGradient id="paint38_linear_0_29990" x1="323.228" y1="396.603" x2="501.352" y2="396.603" gradientUnits="userSpaceOnUse">
<stop stop-color="#2E3E9D"/>
<stop offset="1" stop-color="#79D3FD"/>
</linearGradient>
<linearGradient id="paint39_linear_0_29990" x1="-nan" y1="-nan" x2="-nan" y2="-nan" gradientUnits="userSpaceOnUse">
<stop stop-color="#79D3FD"/>
<stop offset="1" stop-color="white"/>
</linearGradient>
<linearGradient id="paint40_linear_0_29990" x1="-nan" y1="-nan" x2="-nan" y2="-nan" gradientUnits="userSpaceOnUse">
<stop stop-color="#79D3FD"/>
<stop offset="1" stop-color="white"/>
</linearGradient>
<linearGradient id="paint41_linear_0_29990" x1="-nan" y1="-nan" x2="-nan" y2="-nan" gradientUnits="userSpaceOnUse">
<stop stop-color="#79D3FD"/>
<stop offset="1" stop-color="white"/>
</linearGradient>
<linearGradient id="paint42_linear_0_29990" x1="420.606" y1="255.228" x2="384.998" y2="321.631" gradientUnits="userSpaceOnUse">
<stop stop-color="#F9DD68"/>
<stop offset="1" stop-color="#F9A942"/>
</linearGradient>
<linearGradient id="paint43_linear_0_29990" x1="328.498" y1="260.625" x2="451.374" y2="260.625" gradientUnits="userSpaceOnUse">
<stop stop-color="#F9DD68"/>
<stop offset="1" stop-color="#F9A942"/>
</linearGradient>
<linearGradient id="paint44_linear_0_29990" x1="335.592" y1="260.625" x2="444.28" y2="260.625" gradientUnits="userSpaceOnUse">
<stop stop-color="#F9DD68"/>
<stop offset="1" stop-color="#F9A942"/>
</linearGradient>
<linearGradient id="paint45_linear_0_29990" x1="357.041" y1="254.226" x2="418.493" y2="286.496" gradientUnits="userSpaceOnUse">
<stop stop-color="#F9DD68"/>
<stop offset="1" stop-color="#F9A942"/>
</linearGradient>
<linearGradient id="paint46_linear_0_29990" x1="362.591" y1="243.655" x2="424.043" y2="275.925" gradientUnits="userSpaceOnUse">
<stop stop-color="#F9DD68"/>
<stop offset="1" stop-color="#F9A942"/>
</linearGradient>
<linearGradient id="paint47_linear_0_29990" x1="367.988" y1="233.376" x2="429.44" y2="265.646" gradientUnits="userSpaceOnUse">
<stop stop-color="#F9DD68"/>
<stop offset="1" stop-color="#F9A942"/>
</linearGradient>
<linearGradient id="paint48_linear_0_29990" x1="338.806" y1="182.927" x2="350.684" y2="182.927" gradientUnits="userSpaceOnUse">
<stop stop-color="#F9DD68"/>
<stop offset="1" stop-color="#F9A942"/>
</linearGradient>
<linearGradient id="paint49_linear_0_29990" x1="346.011" y1="341.744" x2="361.228" y2="341.744" gradientUnits="userSpaceOnUse">
<stop stop-color="#F9DD68"/>
<stop offset="1" stop-color="#F9A942"/>
</linearGradient>
<linearGradient id="paint50_linear_0_29990" x1="441.456" y1="323.259" x2="447.117" y2="323.259" gradientUnits="userSpaceOnUse">
<stop stop-color="#F9DD68"/>
<stop offset="1" stop-color="#F9A942"/>
</linearGradient>
<linearGradient id="paint51_linear_0_29990" x1="396.752" y1="361.607" x2="401.356" y2="361.607" gradientUnits="userSpaceOnUse">
<stop stop-color="#F9DD68"/>
<stop offset="1" stop-color="#F9A942"/>
</linearGradient>
<linearGradient id="paint52_linear_0_29990" x1="313.991" y1="242.709" x2="318.595" y2="242.709" gradientUnits="userSpaceOnUse">
<stop stop-color="#F9DD68"/>
<stop offset="1" stop-color="#F9A942"/>
</linearGradient>
<linearGradient id="paint53_linear_0_29990" x1="424.961" y1="185.222" x2="429.565" y2="185.222" gradientUnits="userSpaceOnUse">
<stop stop-color="#F9DD68"/>
<stop offset="1" stop-color="#F9A942"/>
</linearGradient>
<linearGradient id="paint54_linear_0_29990" x1="427.27" y1="345.861" x2="434.224" y2="345.861" gradientUnits="userSpaceOnUse">
<stop stop-color="#F9DD68"/>
<stop offset="1" stop-color="#F9A942"/>
</linearGradient>
<linearGradient id="paint55_linear_0_29990" x1="463.057" y1="231.763" x2="470.026" y2="231.763" gradientUnits="userSpaceOnUse">
<stop stop-color="#F9DD68"/>
<stop offset="1" stop-color="#F9A942"/>
</linearGradient>
<linearGradient id="paint56_linear_0_29990" x1="592.374" y1="527.56" x2="622.168" y2="527.56" gradientUnits="userSpaceOnUse">
<stop stop-color="#00FFFF"/>
<stop offset="1" stop-color="#5793FB"/>
</linearGradient>
<linearGradient id="paint57_linear_0_29990" x1="530.95" y1="525.293" x2="560.369" y2="525.293" gradientUnits="userSpaceOnUse">
<stop stop-color="#00FFFF"/>
<stop offset="1" stop-color="#5793FB"/>
</linearGradient>
<linearGradient id="paint58_linear_0_29990" x1="564.861" y1="375.015" x2="564.861" y2="489.796" gradientUnits="userSpaceOnUse">
<stop stop-color="#00004F"/>
<stop offset="1" stop-color="#000079"/>
</linearGradient>
<linearGradient id="paint59_linear_0_29990" x1="579.592" y1="404.656" x2="579.592" y2="447.497" gradientUnits="userSpaceOnUse">
<stop stop-color="#00006C"/>
<stop offset="1" stop-color="#3049B9"/>
</linearGradient>
<linearGradient id="paint60_linear_0_29990" x1="589.146" y1="369.104" x2="589.146" y2="488.767" gradientUnits="userSpaceOnUse">
<stop stop-color="#00004F"/>
<stop offset="1" stop-color="#000079"/>
</linearGradient>
<linearGradient id="paint61_linear_0_29990" x1="602.109" y1="229.579" x2="602.109" y2="270.528" gradientUnits="userSpaceOnUse">
<stop stop-color="#00B5FF"/>
<stop offset="1" stop-color="#3049B9"/>
</linearGradient>
<linearGradient id="paint62_linear_0_29990" x1="580.997" y1="374.96" x2="580.997" y2="291.615" gradientUnits="userSpaceOnUse">
<stop stop-color="#7995FD"/>
<stop offset="1" stop-color="#54DEFF"/>
</linearGradient>
<linearGradient id="paint63_linear_0_29990" x1="611.902" y1="322.953" x2="598.424" y2="295.635" gradientUnits="userSpaceOnUse">
<stop stop-color="#7995FD"/>
<stop offset="1" stop-color="#54DEFF"/>
</linearGradient>
<linearGradient id="paint64_linear_0_29990" x1="522.729" y1="220.871" x2="559.213" y2="255.993" gradientUnits="userSpaceOnUse">
<stop stop-color="#2C89FB"/>
<stop offset="1" stop-color="#0059FF"/>
</linearGradient>
<linearGradient id="paint65_linear_0_29990" x1="180.836" y1="378.465" x2="191.56" y2="520.911" gradientUnits="userSpaceOnUse">
<stop stop-color="#00006C"/>
<stop offset="1" stop-color="#5793FB"/>
</linearGradient>
<linearGradient id="paint66_linear_0_29990" x1="152.837" y1="370.578" x2="163.436" y2="511.286" gradientUnits="userSpaceOnUse">
<stop stop-color="#00006C"/>
<stop offset="1" stop-color="#5793FB"/>
</linearGradient>
<linearGradient id="paint67_linear_0_29990" x1="229.324" y1="526.016" x2="196.456" y2="531.997" gradientUnits="userSpaceOnUse">
<stop stop-color="#00006C"/>
<stop offset="1" stop-color="#3049B9"/>
</linearGradient>
<linearGradient id="paint68_linear_0_29990" x1="186.873" y1="529.16" x2="209.907" y2="525.154" gradientUnits="userSpaceOnUse">
<stop stop-color="#00FFFF"/>
<stop offset="1" stop-color="#5793FB"/>
</linearGradient>
<linearGradient id="paint69_linear_0_29990" x1="124.196" y1="520.786" x2="149.303" y2="533.763" gradientUnits="userSpaceOnUse">
<stop stop-color="#00FFFF"/>
<stop offset="1" stop-color="#5793FB"/>
</linearGradient>
<linearGradient id="paint70_linear_0_29990" x1="185.773" y1="243.057" x2="179.319" y2="285.62" gradientUnits="userSpaceOnUse">
<stop stop-color="#000051"/>
<stop offset="1" stop-color="#30389C"/>
</linearGradient>
<linearGradient id="paint71_linear_0_29990" x1="176.288" y1="241.61" x2="169.834" y2="284.187" gradientUnits="userSpaceOnUse">
<stop stop-color="#000051"/>
<stop offset="1" stop-color="#30389C"/>
</linearGradient>
<linearGradient id="paint72_linear_0_29990" x1="208.196" y1="338.392" x2="208.196" y2="297.818" gradientUnits="userSpaceOnUse">
<stop stop-color="#7995FD"/>
<stop offset="1" stop-color="#54DEFF"/>
</linearGradient>
<linearGradient id="paint73_linear_0_29990" x1="171.28" y1="380.287" x2="171.28" y2="297.651" gradientUnits="userSpaceOnUse">
<stop stop-color="#7995FD"/>
<stop offset="1" stop-color="#54DEFF"/>
</linearGradient>
<linearGradient id="paint74_linear_0_29990" x1="181.158" y1="363.527" x2="156.177" y2="313.175" gradientUnits="userSpaceOnUse">
<stop stop-color="#160EC0"/>
<stop offset="1" stop-color="#5451FF"/>
</linearGradient>
<linearGradient id="paint75_linear_0_29990" x1="151.46" y1="336.417" x2="151.46" y2="302.381" gradientUnits="userSpaceOnUse">
<stop stop-color="#7995FD"/>
<stop offset="1" stop-color="#54DEFF"/>
</linearGradient>
<linearGradient id="paint76_linear_0_29990" x1="12.1992" y1="273.978" x2="94.7376" y2="273.978" gradientUnits="userSpaceOnUse">
<stop stop-color="#2C89FB"/>
<stop offset="1" stop-color="#0059FF"/>
</linearGradient>
<linearGradient id="paint77_linear_0_29990" x1="19.5293" y1="273.978" x2="56.5144" y2="273.978" gradientUnits="userSpaceOnUse">
<stop stop-color="#8AFFFF"/>
<stop offset="1" stop-color="#79D3FD"/>
</linearGradient>
<linearGradient id="paint78_linear_0_29990" x1="230.854" y1="379.494" x2="298.12" y2="379.494" gradientUnits="userSpaceOnUse">
<stop stop-color="#2C89FB"/>
<stop offset="1" stop-color="#0059FF"/>
</linearGradient>
<linearGradient id="paint79_linear_0_29990" x1="235.904" y1="392.207" x2="276.714" y2="392.207" gradientUnits="userSpaceOnUse">
<stop stop-color="#8AFFFF"/>
<stop offset="1" stop-color="#79D3FD"/>
</linearGradient>
<linearGradient id="paint80_linear_0_29990" x1="250.843" y1="385.531" x2="293.433" y2="385.531" gradientUnits="userSpaceOnUse">
<stop stop-color="#8AFFFF"/>
<stop offset="1" stop-color="#79D3FD"/>
</linearGradient>
<linearGradient id="paint81_linear_0_29990" x1="247.894" y1="356.627" x2="263.709" y2="372.442" gradientUnits="userSpaceOnUse">
<stop stop-color="#F9DD68"/>
<stop offset="1" stop-color="#F9A942"/>
</linearGradient>
<linearGradient id="paint82_linear_0_29990" x1="266.894" y1="104.617" x2="292.431" y2="104.617" gradientUnits="userSpaceOnUse">
<stop stop-color="#2C89FB"/>
<stop offset="1" stop-color="#0059FF"/>
</linearGradient>
<linearGradient id="paint83_linear_0_29990" x1="251.955" y1="132.575" x2="307.37" y2="132.575" gradientUnits="userSpaceOnUse">
<stop stop-color="#2C89FB"/>
<stop offset="1" stop-color="#0059FF"/>
</linearGradient>
<linearGradient id="paint84_linear_0_29990" x1="309.609" y1="76.937" x2="311.793" y2="79.1208" gradientUnits="userSpaceOnUse">
<stop stop-color="#F9DD68"/>
<stop offset="1" stop-color="#F9A942"/>
</linearGradient>
<linearGradient id="paint85_linear_0_29990" x1="316.648" y1="76.937" x2="318.846" y2="79.1208" gradientUnits="userSpaceOnUse">
<stop stop-color="#F9DD68"/>
<stop offset="1" stop-color="#F9A942"/>
</linearGradient>
<linearGradient id="paint86_linear_0_29990" x1="323.7" y1="76.937" x2="325.884" y2="79.1208" gradientUnits="userSpaceOnUse">
<stop stop-color="#F9DD68"/>
<stop offset="1" stop-color="#F9A942"/>
</linearGradient>
<linearGradient id="paint87_linear_0_29990" x1="237.615" y1="66.3659" x2="321.697" y2="150.448" gradientUnits="userSpaceOnUse">
<stop stop-color="#F9DD68"/>
<stop offset="1" stop-color="#F9A942"/>
</linearGradient>
<linearGradient id="paint88_linear_0_29990" x1="713.497" y1="404.058" x2="782.932" y2="473.494" gradientUnits="userSpaceOnUse">
<stop stop-color="#2C89FB"/>
<stop offset="1" stop-color="#0059FF"/>
</linearGradient>
<linearGradient id="paint89_linear_0_29990" x1="724.471" y1="412.807" x2="772.723" y2="461.059" gradientUnits="userSpaceOnUse">
<stop stop-color="#F9DD68"/>
<stop offset="1" stop-color="#F9A942"/>
</linearGradient>
<linearGradient id="paint90_linear_0_29990" x1="734.43" y1="447.706" x2="763.459" y2="476.735" gradientUnits="userSpaceOnUse">
<stop stop-color="#10274A"/>
<stop offset="1" stop-color="#00347F"/>
</linearGradient>
<linearGradient id="paint91_linear_0_29990" x1="747.602" y1="452.463" x2="767.451" y2="472.312" gradientUnits="userSpaceOnUse">
<stop stop-color="white"/>
<stop offset="1" stop-color="#79D3FD"/>
</linearGradient>
<linearGradient id="paint92_linear_0_29990" x1="738.409" y1="460.28" x2="743.166" y2="465.037" gradientUnits="userSpaceOnUse">
<stop stop-color="#10274A"/>
<stop offset="1" stop-color="#00347F"/>
</linearGradient>
<linearGradient id="paint93_linear_0_29990" x1="739.48" y1="461.351" x2="742.164" y2="464.05" gradientUnits="userSpaceOnUse">
<stop stop-color="white"/>
<stop offset="1" stop-color="#79D3FD"/>
</linearGradient>
<linearGradient id="paint94_linear_0_29990" x1="741.998" y1="431.015" x2="756.241" y2="445.272" gradientUnits="userSpaceOnUse">
<stop stop-color="#10274A"/>
<stop offset="1" stop-color="#00347F"/>
</linearGradient>
<linearGradient id="paint95_linear_0_29990" x1="441.79" y1="107.259" x2="507.721" y2="173.19" gradientUnits="userSpaceOnUse">
<stop stop-color="#2C89FB"/>
<stop offset="1" stop-color="#0059FF"/>
</linearGradient>
<linearGradient id="paint96_linear_0_29990" x1="458.455" y1="125.397" x2="463.156" y2="130.099" gradientUnits="userSpaceOnUse">
<stop stop-color="#2E48CD"/>
<stop offset="1" stop-color="#1F237E"/>
</linearGradient>
<linearGradient id="paint97_linear_0_29990" x1="490.043" y1="125.397" x2="485.342" y2="130.099" gradientUnits="userSpaceOnUse">
<stop stop-color="#2E48CD"/>
<stop offset="1" stop-color="#1F237E"/>
</linearGradient>
<linearGradient id="paint98_linear_0_29990" x1="464.199" y1="141.95" x2="470.069" y2="141.95" gradientUnits="userSpaceOnUse">
<stop stop-color="#2E48CD"/>
<stop offset="1" stop-color="#1F237E"/>
</linearGradient>
<linearGradient id="paint99_linear_0_29990" x1="478.429" y1="141.95" x2="484.298" y2="141.95" gradientUnits="userSpaceOnUse">
<stop stop-color="#2E48CD"/>
<stop offset="1" stop-color="#1F237E"/>
</linearGradient>
<linearGradient id="paint100_linear_0_29990" x1="453.531" y1="137.053" x2="462.865" y2="137.053" gradientUnits="userSpaceOnUse">
<stop stop-color="#7995FD"/>
<stop offset="1" stop-color="#54DEFF"/>
</linearGradient>
<linearGradient id="paint101_linear_0_29990" x1="494.035" y1="138.75" x2="486.566" y2="131.281" gradientUnits="userSpaceOnUse">
<stop stop-color="#7995FD"/>
<stop offset="1" stop-color="#54DEFF"/>
</linearGradient>
<linearGradient id="paint102_linear_0_29990" x1="491.198" y1="141.588" x2="483.728" y2="134.119" gradientUnits="userSpaceOnUse">
<stop stop-color="#7995FD"/>
<stop offset="1" stop-color="#54DEFF"/>
</linearGradient>
<linearGradient id="paint103_linear_0_29990" x1="494.036" y1="138.751" x2="486.566" y2="131.281" gradientUnits="userSpaceOnUse">
<stop stop-color="#7995FD"/>
<stop offset="1" stop-color="#54DEFF"/>
</linearGradient>
<linearGradient id="paint104_linear_0_29990" x1="491.197" y1="141.588" x2="483.728" y2="134.119" gradientUnits="userSpaceOnUse">
<stop stop-color="#7995FD"/>
<stop offset="1" stop-color="#54DEFF"/>
</linearGradient>
<linearGradient id="paint105_linear_0_29990" x1="-nan" y1="-nan" x2="-nan" y2="-nan" gradientUnits="userSpaceOnUse">
<stop stop-color="#2EFFFF"/>
<stop offset="1" stop-color="#79D3FD"/>
</linearGradient>
<clipPath id="clip0_0_29990">
<rect width="810.445" height="533.022" fill="white" transform="translate(0 0.977539)"/>
</clipPath>
</defs>
</svg>
