<svg width="164" height="63" viewBox="0 0 164 63" fill="none" xmlns="http://www.w3.org/2000/svg">
<g opacity="0.5">
<path d="M1.77463 57.9622C3.87608 60.6494 7.72863 61.1887 10.4872 59.1819L18.2794 53.5134C19.3893 52.706 20.0459 51.4164 20.0459 50.044V46.2691C20.0459 44.2341 22.571 43.0945 24.6061 43.0945V43.0945L25.5571 40.3968C26.0477 39.0055 26.037 37.4866 25.5269 36.1023L24.5289 33.3937C22.0588 33.3937 20.0459 31.378 20.0459 28.7953V21.2253C20.0459 18.0314 17.044 15.6882 13.9457 16.4636V16.4636C11.7612 17.0102 10.2288 18.9733 10.2288 21.2253V44.1208C10.2288 45.9865 9.40599 47.7572 7.98001 48.9603L0 55.6929L1.77463 57.9622Z" fill="#A4A4A4"/>
<path d="M24.5922 43.0945C26.1791 43.0945 27.686 42.8219 29.0839 42.3345C32.218 41.2417 35.9577 41.2553 39.095 42.3391C39.4547 42.4634 39.8217 42.5736 40.1954 42.6688C42.1888 43.1767 44.0505 41.7969 44.7344 39.8569V39.8569C45.1024 38.8132 45.1024 37.675 44.7344 36.6313V36.6313C44.0505 34.6913 41.9784 33.5868 40.4556 32.2038C39.5367 31.3694 38.9695 30.1617 38.9695 28.7953V21.1554C38.9695 17.9914 36.0031 15.665 32.9302 16.4191V16.4191C30.7493 16.9544 29.2157 18.9097 29.2157 21.1554V28.7953C29.2157 31.378 27.1256 33.3937 24.5922 33.3937H24.5289L25.5269 36.1023C26.037 37.4866 26.0477 39.0055 25.5571 40.3968L24.6061 43.0945H24.5922ZM16.6257 4.82678C16.6257 6.89676 18.3037 8.57481 20.3737 8.57481H35.6648C37.7348 8.57481 39.4128 6.89676 39.4128 4.82678V4.82678C39.4128 2.7568 37.7348 1.07874 35.6648 1.07874H20.3737C18.3037 1.07874 16.6257 2.7568 16.6257 4.82678V4.82678Z" fill="#A4A4A4"/>
<path d="M42.4729 39.3271C43.1296 41.5606 45.1794 43.0945 47.5074 43.0945V43.0945C49.0893 43.0945 50.603 42.8236 52.0055 42.3391C55.1427 41.2553 58.8824 41.2417 62.0165 42.3345C63.4144 42.8219 64.9213 43.0945 66.5082 43.0945L68.0861 38.3701L68.7443 33.3937C66.2108 33.3937 61.8847 31.378 61.8847 28.7953V21.1554C61.8847 17.9914 58.9183 15.665 55.8455 16.4191V16.4191C53.6645 16.9544 52.131 18.9098 52.131 21.1554V28.7953C52.131 31.378 50.0409 33.3937 47.5074 33.3937H46.5834C44.7737 33.3937 43.1501 34.5064 42.4972 36.1942V36.1942C42.1489 37.0946 42.1077 38.0848 42.38 39.0109L42.4729 39.3271ZM43.8973 53.1417C43.8973 55.2117 45.5753 56.8898 47.6453 56.8898H50.2502C51.6737 56.8898 52.8276 58.0437 52.8276 59.4672V59.4672C52.8276 61.2139 54.5285 62.4548 56.1918 61.9216L57.8292 61.3967C59.4153 60.8882 60.4913 59.4134 60.4913 57.7478V55.7255C60.4913 52.2286 57.6564 49.3937 54.1595 49.3937H47.6453C45.5753 49.3937 43.8973 51.0718 43.8973 53.1417V53.1417Z" fill="#888888"/>
<path d="M66.5082 43.0945H68.7443H70.961C78.878 43.0945 85.3383 36.6693 85.3383 28.7953V21.1554C85.3383 17.9914 82.3719 15.665 79.299 16.4191V16.4191C77.1181 16.9544 75.5845 18.9097 75.5845 21.1554V28.7953C75.5845 31.378 73.4945 33.3937 70.961 33.3937H68.7443L68.0861 38.3701L66.5082 43.0945ZM66.0208 53.1102C66.0208 55.1976 67.713 56.8898 69.8003 56.8898H78.962C81.0493 56.8898 82.7415 55.1976 82.7415 53.1102V53.1102C82.7415 51.0229 81.0493 49.3307 78.962 49.3307H69.8003C67.713 49.3307 66.0208 51.0229 66.0208 53.1102V53.1102Z" fill="#888888"/>
<path d="M87.6729 53.9085C89.6103 56.8101 93.5299 57.5978 96.4378 55.6697L99.7291 53.4874C100.915 52.7011 101.628 51.3729 101.628 49.95V44.9402C101.628 43.4459 104.203 42.5794 105.648 42.9614V42.9614C106.384 43.1561 106.358 42.6142 106.611 41.8961L107.898 38.2441L106.088 32.8583C105.296 32.0709 101.628 31.378 101.628 28.7953V21.2253C101.628 18.0314 98.6261 15.6882 95.5278 16.4636V16.4636C93.3433 17.0102 91.8109 18.9733 91.8109 21.2253V43.6838C91.8109 45.7956 90.758 47.7685 89.0036 48.944L85.794 51.0945L87.6729 53.9085Z" fill="#888888"/>
<path d="M106.174 43.0945H149.559C157.476 43.0945 164 36.6693 164 28.7953C164 20.9213 157.476 14.5591 149.559 14.5591H127.202L135.372 8.85598C137.527 7.35142 137.978 4.34598 136.359 2.2754V2.2754C134.905 0.41725 132.279 -0.0342459 130.289 1.23195L112.242 12.7135C110.435 13.8629 109.341 15.8559 109.341 17.9973V17.9973C109.341 21.456 112.145 24.2598 115.604 24.2598H149.559C152.093 24.2598 154.183 26.2756 154.183 28.7953C154.183 31.378 152.093 33.3937 149.559 33.3937L106.088 32.8583L106.879 35.2205L107.898 38.2441L106.174 43.0945Z" fill="#888888"/>
</g>
</svg>
