<svg width="117" height="44" viewBox="0 0 117 44" fill="none" xmlns="http://www.w3.org/2000/svg">
<path d="M1.54054 41.0564C3.03255 42.9747 5.77931 43.3593 7.74083 41.9246L13.259 37.8884C14.0453 37.3132 14.5102 36.3973 14.5102 35.423V32.7057C14.5102 31.2632 16.3032 30.4571 17.7457 30.4571V30.4571L18.4259 28.5173C18.7706 27.5343 18.7631 26.462 18.4046 25.484L17.6909 23.5365C15.9384 23.5365 14.5102 22.0985 14.5102 20.256V14.8371C14.5102 12.5691 12.377 10.9062 10.1776 11.4596V11.4596C8.62972 11.8491 7.5447 13.2409 7.5447 14.8371V31.2074C7.5447 32.5273 6.96443 33.7805 5.95789 34.6343L0.287109 39.4448L1.54054 41.0564Z" fill="#F53A21"/>
<path d="M17.7359 30.4571C18.8555 30.4571 19.919 30.2648 20.906 29.9208C23.1394 29.1424 25.8071 29.152 28.0427 29.924C28.2872 30.0084 28.5363 30.0836 28.7898 30.149C30.2128 30.5163 31.5429 29.5287 32.0293 28.1418V28.1418C32.2892 27.4006 32.2892 26.593 32.0293 25.8518V25.8518C31.5429 24.4649 30.0603 23.6734 28.9798 22.6771C28.3347 22.0822 27.9369 21.225 27.9369 20.256V14.7874C27.9369 12.5406 25.829 10.8896 23.6477 11.4279V11.4279C22.1023 11.8092 21.0164 13.1956 21.0164 14.7874V20.256C21.0164 22.0985 19.5334 23.5365 17.7359 23.5365H17.6909L18.4046 25.484C18.7631 26.462 18.7706 27.5343 18.4259 28.5173L17.7457 30.4571H17.7359ZM12.0834 3.15683C12.0834 4.63356 13.2806 5.83068 14.7573 5.83068H25.5776C27.0543 5.83068 28.2515 4.63356 28.2515 3.15683V3.15683C28.2515 1.6801 27.0543 0.48298 25.5776 0.48298H14.7573C13.2806 0.48298 12.0834 1.6801 12.0834 3.15683V3.15683Z" fill="#F53A21"/>
<path d="M30.4266 27.7829C30.8901 29.3678 32.3435 30.4571 33.9948 30.4571V30.4571C35.1109 30.4571 36.1791 30.266 37.1695 29.924C39.4051 29.152 42.0728 29.1424 44.3062 29.9208C45.2933 30.2648 46.3568 30.4571 47.4763 30.4571L48.5959 27.0867L49.0629 23.5365C47.2653 23.5365 44.1958 22.0985 44.1958 20.256V14.7874C44.1958 12.5406 42.088 10.8896 39.9066 11.4279V11.4279C38.3612 11.8092 37.2753 13.1956 37.2753 14.7874V20.256C37.2753 22.0985 35.7923 23.5365 33.9948 23.5365H33.3546C32.0617 23.5365 30.9023 24.3327 30.438 25.5393V25.5393C30.192 26.1786 30.1629 26.8811 30.3552 27.5386L30.4266 27.7829ZM31.4333 37.6248C31.4333 39.1015 32.6304 40.2987 34.1072 40.2987H35.9327C36.9472 40.2987 37.7696 41.1211 37.7696 42.1356V42.1356C37.7696 43.3818 38.9841 44.2663 40.1701 43.884L41.3225 43.5126C42.4458 43.1505 43.2072 42.1051 43.2072 40.9249V39.4448C43.2072 36.9629 41.1952 34.951 38.7133 34.951H34.1072C32.6304 34.951 31.4333 36.1481 31.4333 37.6248V37.6248Z" fill="#F53A21"/>
<path d="M47.4763 30.4571H49.0629H50.6357C56.253 30.4571 60.8367 25.8733 60.8367 20.256V14.7874C60.8367 12.5406 58.7289 10.8896 56.5475 11.4279V11.4279C55.0021 11.8092 53.9162 13.1956 53.9162 14.7874V20.256C53.9162 22.0985 52.4332 23.5365 50.6357 23.5365H49.0629L48.5959 27.0867L47.4763 30.4571ZM47.1305 37.6023C47.1305 39.0915 48.3377 40.2987 49.8268 40.2987H56.2979C57.7871 40.2987 58.9943 39.0915 58.9943 37.6023V37.6023C58.9943 36.1132 57.7871 34.906 56.2979 34.906H49.8268C48.3377 34.906 47.1305 36.1132 47.1305 37.6023V37.6023Z" fill="#F53A21"/>
<path d="M62.4894 38.166C63.8641 40.2362 66.658 40.7977 68.7257 39.4192L71.0491 37.8703C71.8897 37.3098 72.3947 36.3663 72.3947 35.356V31.7627C72.3947 30.7032 74.2237 30.0901 75.2476 30.3624V30.3624C75.7693 30.5011 75.7498 30.1161 75.9285 29.6066L76.8436 26.9968L75.5589 23.1545C74.9972 22.5928 72.3947 22.0985 72.3947 20.256V14.8371C72.3947 12.5691 70.2615 10.9062 68.0621 11.4596V11.4596C66.5142 11.8491 65.4292 13.2409 65.4292 14.8371V30.8972C65.4292 32.392 64.6859 33.789 63.4462 34.6242L61.1601 36.1643L62.4894 38.166Z" fill="#F53A21"/>
<path d="M75.6204 30.4571H106.403C112.021 30.4571 116.649 25.8733 116.649 20.256C116.649 14.6387 112.021 10.0999 106.403 10.0999H90.54L96.3457 6.02496C97.8726 4.9533 98.1923 2.82216 97.047 1.34968V1.34968C96.0116 0.0184776 94.1326 -0.304722 92.7119 0.604044L79.9297 8.78061C78.6447 9.60256 77.8673 11.0227 77.8673 12.5481V12.5481C77.8673 15.0181 79.8697 17.0204 82.3397 17.0204H106.403C108.201 17.0204 109.684 18.4585 109.684 20.256C109.684 22.0985 108.201 23.5365 106.403 23.5365L75.5589 23.1545L76.1207 24.8397L76.8436 26.9968L75.6204 30.4571Z" fill="#F53A21"/>
</svg>
